# Tiled2Unity generated file. Do not modify by hand.
# Wavefront file for 'map2_1_mesh_0014.obj'

# Vertices (Count = 180)
v -1984 -96 0
v -2016 -96 0
v -2016 -64 0
v -1984 -64 0
v -896 -96 0
v -928 -96 0
v -928 -64 0
v -896 -64 0
v -1984 -128 0
v -2016 -128 0
v -2016 -96 0
v -1984 -96 0
v -896 -128 0
v -928 -128 0
v -928 -96 0
v -896 -96 0
v -1920 -192 0
v -1952 -192 0
v -1952 -160 0
v -1920 -160 0
v -1888 -192 0
v -1920 -192 0
v -1920 -160 0
v -1888 -160 0
v -1920 -224 0
v -1952 -224 0
v -1952 -192 0
v -1920 -192 0
v -1888 -224 0
v -1920 -224 0
v -1920 -192 0
v -1888 -192 0
v -1920 -256 0
v -1952 -256 0
v -1952 -224 0
v -1920 -224 0
v -1888 -256 0
v -1920 -256 0
v -1920 -224 0
v -1888 -224 0
v -1440 -416 0
v -1472 -416 0
v -1472 -384 0
v -1440 -384 0
v -1440 -448 0
v -1472 -448 0
v -1472 -416 0
v -1440 -416 0
v -1440 -512 0
v -1472 -512 0
v -1472 -480 0
v -1440 -480 0
v -864 -512 0
v -896 -512 0
v -896 -480 0
v -864 -480 0
v -1920 -544 0
v -1952 -544 0
v -1952 -512 0
v -1920 -512 0
v -1440 -544 0
v -1472 -544 0
v -1472 -512 0
v -1440 -512 0
v -864 -544 0
v -896 -544 0
v -896 -512 0
v -864 -512 0
v -736 -544 0
v -768 -544 0
v -768 -512 0
v -736 -512 0
v -704 -544 0
v -736 -544 0
v -736 -512 0
v -704 -512 0
v -672 -544 0
v -704 -544 0
v -704 -512 0
v -672 -512 0
v -640 -544 0
v -672 -544 0
v -672 -512 0
v -640 -512 0
v -608 -544 0
v -640 -544 0
v -640 -512 0
v -608 -512 0
v -576 -544 0
v -608 -544 0
v -608 -512 0
v -576 -512 0
v -544 -544 0
v -576 -544 0
v -576 -512 0
v -544 -512 0
v -512 -544 0
v -544 -544 0
v -544 -512 0
v -512 -512 0
v -480 -544 0
v -512 -544 0
v -512 -512 0
v -480 -512 0
v -448 -544 0
v -480 -544 0
v -480 -512 0
v -448 -512 0
v -1920 -576 0
v -1952 -576 0
v -1952 -544 0
v -1920 -544 0
v -1568 -576 0
v -1600 -576 0
v -1600 -544 0
v -1568 -544 0
v -864 -576 0
v -896 -576 0
v -896 -544 0
v -864 -544 0
v -736 -576 0
v -768 -576 0
v -768 -544 0
v -736 -544 0
v -704 -576 0
v -736 -576 0
v -736 -544 0
v -704 -544 0
v -672 -576 0
v -704 -576 0
v -704 -544 0
v -672 -544 0
v -640 -576 0
v -672 -576 0
v -672 -544 0
v -640 -544 0
v -608 -576 0
v -640 -576 0
v -640 -544 0
v -608 -544 0
v -576 -576 0
v -608 -576 0
v -608 -544 0
v -576 -544 0
v -544 -576 0
v -576 -576 0
v -576 -544 0
v -544 -544 0
v -512 -576 0
v -544 -576 0
v -544 -544 0
v -512 -544 0
v -480 -576 0
v -512 -576 0
v -512 -544 0
v -480 -544 0
v -448 -576 0
v -480 -576 0
v -480 -544 0
v -448 -544 0
v -1440 -608 0
v -1472 -608 0
v -1472 -576 0
v -1440 -576 0
v -1440 -640 0
v -1472 -640 0
v -1472 -608 0
v -1440 -608 0
v -160 -736 0
v -192 -736 0
v -192 -704 0
v -160 -704 0
v -160 -768 0
v -192 -768 0
v -192 -736 0
v -160 -736 0
v -160 -800 0
v -192 -800 0
v -192 -768 0
v -160 -768 0

# Texture cooridinates (Count = 47)
vt 0 0.3333333
vt 0.0625 0.3333333
vt 0.0625 0.4285714
vt 0 0.4285714
vt 0.375 0.7142857
vt 0.4375 0.7142857
vt 0.4375 0.8095238
vt 0.375 0.8095238
vt 0 0.2380952
vt 0.0625 0.2380952
vt 0.375 0.6190476
vt 0.4375 0.6190476
vt 0.5 0.9047619
vt 0.5625 0.9047619
vt 0.5625 1
vt 0.5 1
vt 0.4375 0.9047619
vt 0.4375 1
vt 0.5 0.8095238
vt 0.5625 0.8095238
vt 0.5 0.7142857
vt 0.5625 0.7142857
vt 0.125 0.3333333
vt 0.125 0.4285714
vt 0.1875 0.9047619
vt 0.25 0.9047619
vt 0.25 1
vt 0.1875 1
vt 0.125 0.2380952
vt 0.1875 0.8095238
vt 0.25 0.8095238
vt 0.125 0.5238096
vt 0.1875 0.5238096
vt 0.1875 0.6190476
vt 0.125 0.6190476
vt 0.0625 0.5238096
vt 0.0625 0.6190476
vt 0.3125 0.5238096
vt 0.375 0.5238096
vt 0.3125 0.6190476
vt 0.1875 0.7142857
vt 0.25 0.7142857
vt 0.1875 0.4285714
vt 0.3125 0.9047619
vt 0.3125 1
vt 0.3125 0.8095238
vt 0.3125 0.7142857

# Normal
vn 0 0 -1

# Mesh description
g map2_1_mesh_0014

# Faces
f 1/1/1 2/2/1 3/3/1 4/4/1
f 5/5/1 6/6/1 7/7/1 8/8/1
f 9/9/1 10/10/1 11/2/1 12/1/1
f 13/11/1 14/12/1 15/6/1 16/5/1
f 17/13/1 18/14/1 19/15/1 20/16/1
f 21/17/1 22/13/1 23/16/1 24/18/1
f 25/19/1 26/20/1 27/14/1 28/13/1
f 29/7/1 30/19/1 31/13/1 32/17/1
f 33/21/1 34/22/1 35/20/1 36/19/1
f 37/6/1 38/21/1 39/19/1 40/7/1
f 41/1/1 42/2/1 43/3/1 44/4/1
f 45/9/1 46/10/1 47/2/1 48/1/1
f 49/2/1 50/23/1 51/24/1 52/3/1
f 53/25/1 54/26/1 55/27/1 56/28/1
f 57/2/1 58/23/1 59/24/1 60/3/1
f 61/10/1 62/29/1 63/23/1 64/2/1
f 65/30/1 66/31/1 67/26/1 68/25/1
f 69/32/1 70/33/1 71/34/1 72/35/1
f 73/36/1 74/32/1 75/35/1 76/37/1
f 77/36/1 78/32/1 79/35/1 80/37/1
f 81/36/1 82/32/1 83/35/1 84/37/1
f 85/36/1 86/32/1 87/35/1 88/37/1
f 89/36/1 90/32/1 91/35/1 92/37/1
f 93/36/1 94/32/1 95/35/1 96/37/1
f 97/36/1 98/32/1 99/35/1 100/37/1
f 101/36/1 102/32/1 103/35/1 104/37/1
f 105/36/1 106/32/1 107/35/1 108/37/1
f 109/10/1 110/29/1 111/23/1 112/2/1
f 113/38/1 114/39/1 115/11/1 116/40/1
f 117/41/1 118/42/1 119/31/1 120/30/1
f 121/24/1 122/43/1 123/33/1 124/32/1
f 125/3/1 126/24/1 127/32/1 128/36/1
f 129/3/1 130/24/1 131/32/1 132/36/1
f 133/3/1 134/24/1 135/32/1 136/36/1
f 137/3/1 138/24/1 139/32/1 140/36/1
f 141/3/1 142/24/1 143/32/1 144/36/1
f 145/3/1 146/24/1 147/32/1 148/36/1
f 149/3/1 150/24/1 151/32/1 152/36/1
f 153/3/1 154/24/1 155/32/1 156/36/1
f 157/3/1 158/24/1 159/32/1 160/36/1
f 161/2/1 162/23/1 163/24/1 164/3/1
f 165/10/1 166/29/1 167/23/1 168/2/1
f 169/26/1 170/44/1 171/45/1 172/27/1
f 173/31/1 174/46/1 175/44/1 176/26/1
f 177/42/1 178/47/1 179/46/1 180/31/1

