# Tiled2Unity generated file. Do not modify by hand.
# Wavefront file for 'map2_1_mesh_0013.obj'

# Vertices (Count = 172)
v -256 -96 0
v -288 -96 0
v -288 -64 0
v -256 -64 0
v -256 -128 0
v -288 -128 0
v -288 -96 0
v -256 -96 0
v -768 -160 0
v -800 -160 0
v -800 -128 0
v -768 -128 0
v -736 -160 0
v -768 -160 0
v -768 -128 0
v -736 -128 0
v -768 -192 0
v -800 -192 0
v -800 -160 0
v -768 -160 0
v -736 -192 0
v -768 -192 0
v -768 -160 0
v -736 -160 0
v -2016 -512 0
v -2048 -512 0
v -2048 -480 0
v -2016 -480 0
v -2016 -544 0
v -2048 -544 0
v -2048 -512 0
v -2016 -512 0
v -1664 -544 0
v -1696 -544 0
v -1696 -512 0
v -1664 -512 0
v -800 -544 0
v -832 -544 0
v -832 -512 0
v -800 -512 0
v -2016 -576 0
v -2048 -576 0
v -2048 -544 0
v -2016 -544 0
v -1952 -576 0
v -1984 -576 0
v -1984 -544 0
v -1952 -544 0
v -1664 -576 0
v -1696 -576 0
v -1696 -544 0
v -1664 -544 0
v -800 -576 0
v -832 -576 0
v -832 -544 0
v -800 -544 0
v -2016 -608 0
v -2048 -608 0
v -2048 -576 0
v -2016 -576 0
v -1984 -640 0
v -2016 -640 0
v -2016 -608 0
v -1984 -608 0
v -1984 -672 0
v -2016 -672 0
v -2016 -640 0
v -1984 -640 0
v -1696 -672 0
v -1728 -672 0
v -1728 -640 0
v -1696 -640 0
v -1632 -672 0
v -1664 -672 0
v -1664 -640 0
v -1632 -640 0
v -1984 -704 0
v -2016 -704 0
v -2016 -672 0
v -1984 -672 0
v -1696 -704 0
v -1728 -704 0
v -1728 -672 0
v -1696 -672 0
v -1632 -704 0
v -1664 -704 0
v -1664 -672 0
v -1632 -672 0
v -1696 -736 0
v -1728 -736 0
v -1728 -704 0
v -1696 -704 0
v -1632 -736 0
v -1664 -736 0
v -1664 -704 0
v -1632 -704 0
v -1696 -768 0
v -1728 -768 0
v -1728 -736 0
v -1696 -736 0
v -1632 -768 0
v -1664 -768 0
v -1664 -736 0
v -1632 -736 0
v -128 -768 0
v -160 -768 0
v -160 -736 0
v -128 -736 0
v -96 -768 0
v -128 -768 0
v -128 -736 0
v -96 -736 0
v -128 -800 0
v -160 -800 0
v -160 -768 0
v -128 -768 0
v -96 -800 0
v -128 -800 0
v -128 -768 0
v -96 -768 0
v -1824 -832 0
v -1856 -832 0
v -1856 -800 0
v -1824 -800 0
v -1792 -832 0
v -1824 -832 0
v -1824 -800 0
v -1792 -800 0
v -1760 -832 0
v -1792 -832 0
v -1792 -800 0
v -1760 -800 0
v -1728 -832 0
v -1760 -832 0
v -1760 -800 0
v -1728 -800 0
v -1824 -864 0
v -1856 -864 0
v -1856 -832 0
v -1824 -832 0
v -1792 -864 0
v -1824 -864 0
v -1824 -832 0
v -1792 -832 0
v -1760 -864 0
v -1792 -864 0
v -1792 -832 0
v -1760 -832 0
v -1824 -896 0
v -1856 -896 0
v -1856 -864 0
v -1824 -864 0
v -1792 -896 0
v -1824 -896 0
v -1824 -864 0
v -1792 -864 0
v -1760 -896 0
v -1792 -896 0
v -1792 -864 0
v -1760 -864 0
v -1728 -896 0
v -1760 -896 0
v -1760 -864 0
v -1728 -864 0
v -1792 -928 0
v -1824 -928 0
v -1824 -896 0
v -1792 -896 0
v -1760 -928 0
v -1792 -928 0
v -1792 -896 0
v -1760 -896 0

# Texture cooridinates (Count = 90)
vt 0 0.3125
vt 0.0625 0.3125
vt 0.0625 0.375
vt 0 0.375
vt 0 0.25
vt 0.0625 0.25
vt 0.5625 0.3125
vt 0.625 0.3125
vt 0.625 0.375
vt 0.5625 0.375
vt 0.5 0.3125
vt 0.5 0.375
vt 0.5625 0.25
vt 0.625 0.25
vt 0.5 0.25
vt 0.25 0.9375
vt 0.1875 0.9375
vt 0.1875 1
vt 0.25 1
vt 0.25 0.875
vt 0.1875 0.875
vt 0.4375 0.3125
vt 0.4375 0.375
vt 0.875 0.9375
vt 0.9375 0.9375
vt 0.9375 1
vt 0.875 1
vt 0.25 0.8125
vt 0.1875 0.8125
vt 0.5 0.9375
vt 0.5625 0.9375
vt 0.5625 1
vt 0.5 1
vt 0.4375 0.25
vt 0.875 0.875
vt 0.9375 0.875
vt 0.25 0.75
vt 0.1875 0.75
vt 0.6875 0.5625
vt 0.75 0.5625
vt 0.75 0.625
vt 0.6875 0.625
vt 0.6875 0.5
vt 0.75 0.5
vt 0.3125 0.3125
vt 0.375 0.3125
vt 0.375 0.375
vt 0.3125 0.375
vt 0.25 0.3125
vt 0.25 0.375
vt 0.6875 0.4375
vt 0.75 0.4375
vt 0.3125 0.25
vt 0.375 0.25
vt 0.25 0.25
vt 0.1875 0.3125
vt 0.1875 0.375
vt 0.1875 0.25
vt 0.25 0.5625
vt 0.3125 0.5625
vt 0.3125 0.625
vt 0.25 0.625
vt 0.1875 0.5625
vt 0.1875 0.625
vt 0.25 0.5
vt 0.3125 0.5
vt 0.1875 0.5
vt 1 0.9375
vt 1 1
vt 0.625 0.1875
vt 0.6875 0.1875
vt 0.6875 0.25
vt 0.5 0.875
vt 0.5625 0.875
vt 1 0.875
vt 0.75 0.1875
vt 0.75 0.25
vt 0.9375 0.8125
vt 1 0.8125
vt 0.6875 0.125
vt 0.75 0.125
vt 0.625 0.125
vt 0.625 0.875
vt 0.6875 0.875
vt 0.6875 0.9375
vt 0.625 0.9375
vt 0.75 0.875
vt 0.75 0.9375
vt 0.8125 0.875
vt 0.8125 0.9375

# Normal
vn 0 0 -1

# Mesh description
g map2_1_mesh_0013

# Faces
f 1/1/1 2/2/1 3/3/1 4/4/1
f 5/5/1 6/6/1 7/2/1 8/1/1
f 9/7/1 10/8/1 11/9/1 12/10/1
f 13/11/1 14/7/1 15/10/1 16/12/1
f 17/13/1 18/14/1 19/8/1 20/7/1
f 21/15/1 22/13/1 23/7/1 24/11/1
f 25/16/1 26/17/1 27/18/1 28/19/1
f 29/20/1 30/21/1 31/17/1 32/16/1
f 33/22/1 34/11/1 35/12/1 36/23/1
f 37/24/1 38/25/1 39/26/1 40/27/1
f 41/28/1 42/29/1 43/21/1 44/20/1
f 45/30/1 46/31/1 47/32/1 48/33/1
f 49/34/1 50/15/1 51/11/1 52/22/1
f 53/35/1 54/36/1 55/25/1 56/24/1
f 57/37/1 58/38/1 59/29/1 60/28/1
f 61/39/1 62/40/1 63/41/1 64/42/1
f 65/43/1 66/44/1 67/40/1 68/39/1
f 69/45/1 70/46/1 71/47/1 72/48/1
f 73/49/1 74/45/1 75/48/1 76/50/1
f 77/51/1 78/52/1 79/44/1 80/43/1
f 81/53/1 82/54/1 83/46/1 84/45/1
f 85/55/1 86/53/1 87/45/1 88/49/1
f 89/49/1 90/45/1 91/48/1 92/50/1
f 93/56/1 94/49/1 95/50/1 96/57/1
f 97/55/1 98/53/1 99/45/1 100/49/1
f 101/58/1 102/55/1 103/49/1 104/56/1
f 105/59/1 106/60/1 107/61/1 108/62/1
f 109/63/1 110/59/1 111/62/1 112/64/1
f 113/65/1 114/66/1 115/60/1 116/59/1
f 117/67/1 118/65/1 119/59/1 120/63/1
f 121/25/1 122/68/1 123/69/1 124/26/1
f 125/70/1 126/71/1 127/72/1 128/14/1
f 129/70/1 130/71/1 131/72/1 132/14/1
f 133/73/1 134/74/1 135/31/1 136/30/1
f 137/36/1 138/75/1 139/68/1 140/25/1
f 141/71/1 142/76/1 143/77/1 144/72/1
f 145/70/1 146/71/1 147/72/1 148/14/1
f 149/78/1 150/79/1 151/75/1 152/36/1
f 153/80/1 154/81/1 155/76/1 156/71/1
f 157/82/1 158/80/1 159/71/1 160/70/1
f 161/83/1 162/84/1 163/85/1 164/86/1
f 165/84/1 166/87/1 167/88/1 168/85/1
f 169/89/1 170/35/1 171/24/1 172/90/1

