# Tiled2Unity generated file. Do not modify by hand.
# Wavefront file for 'map1_mesh_0027.obj'

# Vertices (Count = 72)
v -2752 -448 0
v -2784 -448 0
v -2784 -416 0
v -2752 -416 0
v -2688 -448 0
v -2720 -448 0
v -2720 -416 0
v -2688 -416 0
v -2752 -480 0
v -2784 -480 0
v -2784 -448 0
v -2752 -448 0
v -2688 -480 0
v -2720 -480 0
v -2720 -448 0
v -2688 -448 0
v -2784 -544 0
v -2816 -544 0
v -2816 -512 0
v -2784 -512 0
v -2656 -544 0
v -2688 -544 0
v -2688 -512 0
v -2656 -512 0
v -2784 -576 0
v -2816 -576 0
v -2816 -544 0
v -2784 -544 0
v -2656 -576 0
v -2688 -576 0
v -2688 -544 0
v -2656 -544 0
v -2912 -1088 0
v -2944 -1088 0
v -2944 -1056 0
v -2912 -1056 0
v -2720 -1088 0
v -2752 -1088 0
v -2752 -1056 0
v -2720 -1056 0
v -2912 -1120 0
v -2944 -1120 0
v -2944 -1088 0
v -2912 -1088 0
v -2720 -1120 0
v -2752 -1120 0
v -2752 -1088 0
v -2720 -1088 0
v -2912 -1248 0
v -2944 -1248 0
v -2944 -1216 0
v -2912 -1216 0
v -2720 -1248 0
v -2752 -1248 0
v -2752 -1216 0
v -2720 -1216 0
v -2912 -1280 0
v -2944 -1280 0
v -2944 -1248 0
v -2912 -1248 0
v -2720 -1280 0
v -2752 -1280 0
v -2752 -1248 0
v -2720 -1248 0
v -2688 -1504 0
v -2720 -1504 0
v -2720 -1472 0
v -2688 -1472 0
v -2688 -1536 0
v -2720 -1536 0
v -2720 -1504 0
v -2688 -1504 0

# Texture cooridinates (Count = 22)
vt 0.125 0.25
vt 0.1875 0.25
vt 0.1875 0.3125
vt 0.125 0.3125
vt 0.125 0.1875
vt 0.1875 0.1875
vt 0.125 0.125
vt 0.1875 0.125
vt 0.125 0.0625
vt 0.1875 0.0625
vt 0 0.125
vt 0.0625 0.125
vt 0.0625 0.1875
vt 0 0.1875
vt 0 0.0625
vt 0.0625 0.0625
vt 0.375 0.125
vt 0.4375 0.125
vt 0.4375 0.1875
vt 0.375 0.1875
vt 0.375 0.0625
vt 0.4375 0.0625

# Normal
vn 0 0 -1

# Mesh description
g map1_mesh_0027

# Faces
f 1/1/1 2/2/1 3/3/1 4/4/1
f 5/1/1 6/2/1 7/3/1 8/4/1
f 9/5/1 10/6/1 11/2/1 12/1/1
f 13/5/1 14/6/1 15/2/1 16/1/1
f 17/7/1 18/8/1 19/6/1 20/5/1
f 21/7/1 22/8/1 23/6/1 24/5/1
f 25/9/1 26/10/1 27/8/1 28/7/1
f 29/9/1 30/10/1 31/8/1 32/7/1
f 33/11/1 34/12/1 35/13/1 36/14/1
f 37/11/1 38/12/1 39/13/1 40/14/1
f 41/15/1 42/16/1 43/12/1 44/11/1
f 45/15/1 46/16/1 47/12/1 48/11/1
f 49/11/1 50/12/1 51/13/1 52/14/1
f 53/11/1 54/12/1 55/13/1 56/14/1
f 57/15/1 58/16/1 59/12/1 60/11/1
f 61/15/1 62/16/1 63/12/1 64/11/1
f 65/17/1 66/18/1 67/19/1 68/20/1
f 69/21/1 70/22/1 71/18/1 72/17/1

