# Tiled2Unity generated file. Do not modify by hand.
# Wavefront file for 'map1_mesh_0004.obj'

# Vertices (Count = 472)
v -2720 -544 0
v -2752 -544 0
v -2752 -512 0
v -2720 -512 0
v -2720 -576 0
v -2752 -576 0
v -2752 -544 0
v -2720 -544 0
v -2720 -608 0
v -2752 -608 0
v -2752 -576 0
v -2720 -576 0
v -2720 -640 0
v -2752 -640 0
v -2752 -608 0
v -2720 -608 0
v -2976 -672 0
v -3008 -672 0
v -3008 -640 0
v -2976 -640 0
v -2944 -672 0
v -2976 -672 0
v -2976 -640 0
v -2944 -640 0
v -2912 -672 0
v -2944 -672 0
v -2944 -640 0
v -2912 -640 0
v -2880 -672 0
v -2912 -672 0
v -2912 -640 0
v -2880 -640 0
v -2848 -672 0
v -2880 -672 0
v -2880 -640 0
v -2848 -640 0
v -2816 -672 0
v -2848 -672 0
v -2848 -640 0
v -2816 -640 0
v -2784 -672 0
v -2816 -672 0
v -2816 -640 0
v -2784 -640 0
v -2752 -672 0
v -2784 -672 0
v -2784 -640 0
v -2752 -640 0
v -2720 -672 0
v -2752 -672 0
v -2752 -640 0
v -2720 -640 0
v -2976 -704 0
v -3008 -704 0
v -3008 -672 0
v -2976 -672 0
v -1344 -704 0
v -1376 -704 0
v -1376 -672 0
v -1344 -672 0
v -1312 -704 0
v -1344 -704 0
v -1344 -672 0
v -1312 -672 0
v -1280 -704 0
v -1312 -704 0
v -1312 -672 0
v -1280 -672 0
v -2976 -736 0
v -3008 -736 0
v -3008 -704 0
v -2976 -704 0
v -1344 -736 0
v -1376 -736 0
v -1376 -704 0
v -1344 -704 0
v -1312 -736 0
v -1344 -736 0
v -1344 -704 0
v -1312 -704 0
v -1280 -736 0
v -1312 -736 0
v -1312 -704 0
v -1280 -704 0
v -2976 -768 0
v -3008 -768 0
v -3008 -736 0
v -2976 -736 0
v -1344 -768 0
v -1376 -768 0
v -1376 -736 0
v -1344 -736 0
v -1312 -768 0
v -1344 -768 0
v -1344 -736 0
v -1312 -736 0
v -1280 -768 0
v -1312 -768 0
v -1312 -736 0
v -1280 -736 0
v -2976 -800 0
v -3008 -800 0
v -3008 -768 0
v -2976 -768 0
v -1344 -800 0
v -1376 -800 0
v -1376 -768 0
v -1344 -768 0
v -1312 -800 0
v -1344 -800 0
v -1344 -768 0
v -1312 -768 0
v -1280 -800 0
v -1312 -800 0
v -1312 -768 0
v -1280 -768 0
v -2976 -832 0
v -3008 -832 0
v -3008 -800 0
v -2976 -800 0
v -1344 -832 0
v -1376 -832 0
v -1376 -800 0
v -1344 -800 0
v -1312 -832 0
v -1344 -832 0
v -1344 -800 0
v -1312 -800 0
v -1280 -832 0
v -1312 -832 0
v -1312 -800 0
v -1280 -800 0
v -2976 -864 0
v -3008 -864 0
v -3008 -832 0
v -2976 -832 0
v -2944 -864 0
v -2976 -864 0
v -2976 -832 0
v -2944 -832 0
v -2912 -864 0
v -2944 -864 0
v -2944 -832 0
v -2912 -832 0
v -2880 -864 0
v -2912 -864 0
v -2912 -832 0
v -2880 -832 0
v -2848 -864 0
v -2880 -864 0
v -2880 -832 0
v -2848 -832 0
v -2816 -864 0
v -2848 -864 0
v -2848 -832 0
v -2816 -832 0
v -1344 -864 0
v -1376 -864 0
v -1376 -832 0
v -1344 -832 0
v -1312 -864 0
v -1344 -864 0
v -1344 -832 0
v -1312 -832 0
v -1280 -864 0
v -1312 -864 0
v -1312 -832 0
v -1280 -832 0
v -2816 -896 0
v -2848 -896 0
v -2848 -864 0
v -2816 -864 0
v -1344 -896 0
v -1376 -896 0
v -1376 -864 0
v -1344 -864 0
v -1312 -896 0
v -1344 -896 0
v -1344 -864 0
v -1312 -864 0
v -1280 -896 0
v -1312 -896 0
v -1312 -864 0
v -1280 -864 0
v -2816 -928 0
v -2848 -928 0
v -2848 -896 0
v -2816 -896 0
v -1344 -928 0
v -1376 -928 0
v -1376 -896 0
v -1344 -896 0
v -1312 -928 0
v -1344 -928 0
v -1344 -896 0
v -1312 -896 0
v -1280 -928 0
v -1312 -928 0
v -1312 -896 0
v -1280 -896 0
v -2816 -960 0
v -2848 -960 0
v -2848 -928 0
v -2816 -928 0
v -1344 -960 0
v -1376 -960 0
v -1376 -928 0
v -1344 -928 0
v -1312 -960 0
v -1344 -960 0
v -1344 -928 0
v -1312 -928 0
v -1280 -960 0
v -1312 -960 0
v -1312 -928 0
v -1280 -928 0
v -2816 -992 0
v -2848 -992 0
v -2848 -960 0
v -2816 -960 0
v -1344 -992 0
v -1376 -992 0
v -1376 -960 0
v -1344 -960 0
v -1312 -992 0
v -1344 -992 0
v -1344 -960 0
v -1312 -960 0
v -1280 -992 0
v -1312 -992 0
v -1312 -960 0
v -1280 -960 0
v -2816 -1024 0
v -2848 -1024 0
v -2848 -992 0
v -2816 -992 0
v -1344 -1024 0
v -1376 -1024 0
v -1376 -992 0
v -1344 -992 0
v -1312 -1024 0
v -1344 -1024 0
v -1344 -992 0
v -1312 -992 0
v -1280 -1024 0
v -1312 -1024 0
v -1312 -992 0
v -1280 -992 0
v -2816 -1056 0
v -2848 -1056 0
v -2848 -1024 0
v -2816 -1024 0
v -1344 -1056 0
v -1376 -1056 0
v -1376 -1024 0
v -1344 -1024 0
v -1312 -1056 0
v -1344 -1056 0
v -1344 -1024 0
v -1312 -1024 0
v -1280 -1056 0
v -1312 -1056 0
v -1312 -1024 0
v -1280 -1024 0
v -2816 -1088 0
v -2848 -1088 0
v -2848 -1056 0
v -2816 -1056 0
v -1344 -1088 0
v -1376 -1088 0
v -1376 -1056 0
v -1344 -1056 0
v -1312 -1088 0
v -1344 -1088 0
v -1344 -1056 0
v -1312 -1056 0
v -1280 -1088 0
v -1312 -1088 0
v -1312 -1056 0
v -1280 -1056 0
v -2912 -1120 0
v -2944 -1120 0
v -2944 -1088 0
v -2912 -1088 0
v -2880 -1120 0
v -2912 -1120 0
v -2912 -1088 0
v -2880 -1088 0
v -2848 -1120 0
v -2880 -1120 0
v -2880 -1088 0
v -2848 -1088 0
v -2816 -1120 0
v -2848 -1120 0
v -2848 -1088 0
v -2816 -1088 0
v -2784 -1120 0
v -2816 -1120 0
v -2816 -1088 0
v -2784 -1088 0
v -2752 -1120 0
v -2784 -1120 0
v -2784 -1088 0
v -2752 -1088 0
v -2720 -1120 0
v -2752 -1120 0
v -2752 -1088 0
v -2720 -1088 0
v -1344 -1120 0
v -1376 -1120 0
v -1376 -1088 0
v -1344 -1088 0
v -1312 -1120 0
v -1344 -1120 0
v -1344 -1088 0
v -1312 -1088 0
v -1280 -1120 0
v -1312 -1120 0
v -1312 -1088 0
v -1280 -1088 0
v -2912 -1152 0
v -2944 -1152 0
v -2944 -1120 0
v -2912 -1120 0
v -2880 -1152 0
v -2912 -1152 0
v -2912 -1120 0
v -2880 -1120 0
v -2848 -1152 0
v -2880 -1152 0
v -2880 -1120 0
v -2848 -1120 0
v -2816 -1152 0
v -2848 -1152 0
v -2848 -1120 0
v -2816 -1120 0
v -2784 -1152 0
v -2816 -1152 0
v -2816 -1120 0
v -2784 -1120 0
v -2752 -1152 0
v -2784 -1152 0
v -2784 -1120 0
v -2752 -1120 0
v -2720 -1152 0
v -2752 -1152 0
v -2752 -1120 0
v -2720 -1120 0
v -1344 -1152 0
v -1376 -1152 0
v -1376 -1120 0
v -1344 -1120 0
v -1312 -1152 0
v -1344 -1152 0
v -1344 -1120 0
v -1312 -1120 0
v -1280 -1152 0
v -1312 -1152 0
v -1312 -1120 0
v -1280 -1120 0
v -2912 -1184 0
v -2944 -1184 0
v -2944 -1152 0
v -2912 -1152 0
v -2880 -1184 0
v -2912 -1184 0
v -2912 -1152 0
v -2880 -1152 0
v -2848 -1184 0
v -2880 -1184 0
v -2880 -1152 0
v -2848 -1152 0
v -2816 -1184 0
v -2848 -1184 0
v -2848 -1152 0
v -2816 -1152 0
v -2784 -1184 0
v -2816 -1184 0
v -2816 -1152 0
v -2784 -1152 0
v -2752 -1184 0
v -2784 -1184 0
v -2784 -1152 0
v -2752 -1152 0
v -2720 -1184 0
v -2752 -1184 0
v -2752 -1152 0
v -2720 -1152 0
v -2912 -1216 0
v -2944 -1216 0
v -2944 -1184 0
v -2912 -1184 0
v -2880 -1216 0
v -2912 -1216 0
v -2912 -1184 0
v -2880 -1184 0
v -2848 -1216 0
v -2880 -1216 0
v -2880 -1184 0
v -2848 -1184 0
v -2816 -1216 0
v -2848 -1216 0
v -2848 -1184 0
v -2816 -1184 0
v -2784 -1216 0
v -2816 -1216 0
v -2816 -1184 0
v -2784 -1184 0
v -2752 -1216 0
v -2784 -1216 0
v -2784 -1184 0
v -2752 -1184 0
v -2720 -1216 0
v -2752 -1216 0
v -2752 -1184 0
v -2720 -1184 0
v -2912 -1248 0
v -2944 -1248 0
v -2944 -1216 0
v -2912 -1216 0
v -2880 -1248 0
v -2912 -1248 0
v -2912 -1216 0
v -2880 -1216 0
v -2848 -1248 0
v -2880 -1248 0
v -2880 -1216 0
v -2848 -1216 0
v -2816 -1248 0
v -2848 -1248 0
v -2848 -1216 0
v -2816 -1216 0
v -2784 -1248 0
v -2816 -1248 0
v -2816 -1216 0
v -2784 -1216 0
v -2752 -1248 0
v -2784 -1248 0
v -2784 -1216 0
v -2752 -1216 0
v -2720 -1248 0
v -2752 -1248 0
v -2752 -1216 0
v -2720 -1216 0
v -2912 -1280 0
v -2944 -1280 0
v -2944 -1248 0
v -2912 -1248 0
v -2880 -1280 0
v -2912 -1280 0
v -2912 -1248 0
v -2880 -1248 0
v -2848 -1280 0
v -2880 -1280 0
v -2880 -1248 0
v -2848 -1248 0
v -2816 -1280 0
v -2848 -1280 0
v -2848 -1248 0
v -2816 -1248 0
v -2784 -1280 0
v -2816 -1280 0
v -2816 -1248 0
v -2784 -1248 0
v -2752 -1280 0
v -2784 -1280 0
v -2784 -1248 0
v -2752 -1248 0
v -2720 -1280 0
v -2752 -1280 0
v -2752 -1248 0
v -2720 -1248 0

# Texture cooridinates (Count = 18)
vt 0.4375 0.75
vt 0.5 0.75
vt 0.5 0.8125
vt 0.4375 0.8125
vt 0.3125 0.5625
vt 0.375 0.5625
vt 0.375 0.625
vt 0.3125 0.625
vt 0.4375 0.6875
vt 0.5 0.6875
vt 0.4375 0.5625
vt 0.4375 0.625
vt 0.5 0.5625
vt 0.5 0.625
vt 0.3125 0.75
vt 0.375 0.75
vt 0.375 0.8125
vt 0.3125 0.8125

# Normal
vn 0 0 -1

# Mesh description
g map1_mesh_0004

# Faces
f 1/1/1 2/2/1 3/3/1 4/4/1
f 5/1/1 6/2/1 7/3/1 8/4/1
f 9/1/1 10/2/1 11/3/1 12/4/1
f 13/1/1 14/2/1 15/3/1 16/4/1
f 17/5/1 18/6/1 19/7/1 20/8/1
f 21/5/1 22/6/1 23/7/1 24/8/1
f 25/5/1 26/6/1 27/7/1 28/8/1
f 29/5/1 30/6/1 31/7/1 32/8/1
f 33/5/1 34/6/1 35/7/1 36/8/1
f 37/5/1 38/6/1 39/7/1 40/8/1
f 41/5/1 42/6/1 43/7/1 44/8/1
f 45/5/1 46/6/1 47/7/1 48/8/1
f 49/1/1 50/2/1 51/3/1 52/4/1
f 53/9/1 54/10/1 55/2/1 56/1/1
f 57/9/1 58/10/1 59/2/1 60/1/1
f 61/9/1 62/10/1 63/2/1 64/1/1
f 65/9/1 66/10/1 67/2/1 68/1/1
f 69/9/1 70/10/1 71/2/1 72/1/1
f 73/9/1 74/10/1 75/2/1 76/1/1
f 77/9/1 78/10/1 79/2/1 80/1/1
f 81/9/1 82/10/1 83/2/1 84/1/1
f 85/9/1 86/10/1 87/2/1 88/1/1
f 89/9/1 90/10/1 91/2/1 92/1/1
f 93/9/1 94/10/1 95/2/1 96/1/1
f 97/9/1 98/10/1 99/2/1 100/1/1
f 101/9/1 102/10/1 103/2/1 104/1/1
f 105/9/1 106/10/1 107/2/1 108/1/1
f 109/9/1 110/10/1 111/2/1 112/1/1
f 113/9/1 114/10/1 115/2/1 116/1/1
f 117/9/1 118/10/1 119/2/1 120/1/1
f 121/9/1 122/10/1 123/2/1 124/1/1
f 125/9/1 126/10/1 127/2/1 128/1/1
f 129/9/1 130/10/1 131/2/1 132/1/1
f 133/9/1 134/10/1 135/2/1 136/1/1
f 137/6/1 138/11/1 139/12/1 140/7/1
f 141/6/1 142/11/1 143/12/1 144/7/1
f 145/6/1 146/11/1 147/12/1 148/7/1
f 149/6/1 150/11/1 151/12/1 152/7/1
f 153/6/1 154/11/1 155/12/1 156/7/1
f 157/9/1 158/10/1 159/2/1 160/1/1
f 161/9/1 162/10/1 163/2/1 164/1/1
f 165/9/1 166/10/1 167/2/1 168/1/1
f 169/9/1 170/10/1 171/2/1 172/1/1
f 173/9/1 174/10/1 175/2/1 176/1/1
f 177/9/1 178/10/1 179/2/1 180/1/1
f 181/9/1 182/10/1 183/2/1 184/1/1
f 185/9/1 186/10/1 187/2/1 188/1/1
f 189/9/1 190/10/1 191/2/1 192/1/1
f 193/9/1 194/10/1 195/2/1 196/1/1
f 197/9/1 198/10/1 199/2/1 200/1/1
f 201/9/1 202/10/1 203/2/1 204/1/1
f 205/9/1 206/10/1 207/2/1 208/1/1
f 209/9/1 210/10/1 211/2/1 212/1/1
f 213/9/1 214/10/1 215/2/1 216/1/1
f 217/9/1 218/10/1 219/2/1 220/1/1
f 221/9/1 222/10/1 223/2/1 224/1/1
f 225/9/1 226/10/1 227/2/1 228/1/1
f 229/9/1 230/10/1 231/2/1 232/1/1
f 233/9/1 234/10/1 235/2/1 236/1/1
f 237/9/1 238/10/1 239/2/1 240/1/1
f 241/9/1 242/10/1 243/2/1 244/1/1
f 245/9/1 246/10/1 247/2/1 248/1/1
f 249/9/1 250/10/1 251/2/1 252/1/1
f 253/9/1 254/10/1 255/2/1 256/1/1
f 257/9/1 258/10/1 259/2/1 260/1/1
f 261/9/1 262/10/1 263/2/1 264/1/1
f 265/9/1 266/10/1 267/2/1 268/1/1
f 269/9/1 270/10/1 271/2/1 272/1/1
f 273/9/1 274/10/1 275/2/1 276/1/1
f 277/9/1 278/10/1 279/2/1 280/1/1
f 281/11/1 282/13/1 283/14/1 284/12/1
f 285/1/1 286/2/1 287/3/1 288/4/1
f 289/1/1 290/2/1 291/3/1 292/4/1
f 293/6/1 294/11/1 295/12/1 296/7/1
f 297/1/1 298/2/1 299/3/1 300/4/1
f 301/1/1 302/2/1 303/3/1 304/4/1
f 305/5/1 306/6/1 307/7/1 308/8/1
f 309/9/1 310/10/1 311/2/1 312/1/1
f 313/9/1 314/10/1 315/2/1 316/1/1
f 317/9/1 318/10/1 319/2/1 320/1/1
f 321/11/1 322/13/1 323/14/1 324/12/1
f 325/15/1 326/16/1 327/17/1 328/18/1
f 329/16/1 330/1/1 331/4/1 332/17/1
f 333/16/1 334/1/1 335/4/1 336/17/1
f 337/15/1 338/16/1 339/17/1 340/18/1
f 341/16/1 342/1/1 343/4/1 344/17/1
f 345/5/1 346/6/1 347/7/1 348/8/1
f 349/9/1 350/10/1 351/2/1 352/1/1
f 353/9/1 354/10/1 355/2/1 356/1/1
f 357/9/1 358/10/1 359/2/1 360/1/1
f 361/11/1 362/13/1 363/14/1 364/12/1
f 365/16/1 366/1/1 367/4/1 368/17/1
f 369/15/1 370/16/1 371/17/1 372/18/1
f 373/16/1 374/1/1 375/4/1 376/17/1
f 377/15/1 378/16/1 379/17/1 380/18/1
f 381/15/1 382/16/1 383/17/1 384/18/1
f 385/5/1 386/6/1 387/7/1 388/8/1
f 389/11/1 390/13/1 391/14/1 392/12/1
f 393/16/1 394/1/1 395/4/1 396/17/1
f 397/15/1 398/16/1 399/17/1 400/18/1
f 401/16/1 402/1/1 403/4/1 404/17/1
f 405/16/1 406/1/1 407/4/1 408/17/1
f 409/15/1 410/16/1 411/17/1 412/18/1
f 413/5/1 414/6/1 415/7/1 416/8/1
f 417/11/1 418/13/1 419/14/1 420/12/1
f 421/15/1 422/16/1 423/17/1 424/18/1
f 425/16/1 426/1/1 427/4/1 428/17/1
f 429/16/1 430/1/1 431/4/1 432/17/1
f 433/15/1 434/16/1 435/17/1 436/18/1
f 437/15/1 438/16/1 439/17/1 440/18/1
f 441/5/1 442/6/1 443/7/1 444/8/1
f 445/5/1 446/6/1 447/7/1 448/8/1
f 449/5/1 450/6/1 451/7/1 452/8/1
f 453/5/1 454/6/1 455/7/1 456/8/1
f 457/5/1 458/6/1 459/7/1 460/8/1
f 461/5/1 462/6/1 463/7/1 464/8/1
f 465/5/1 466/6/1 467/7/1 468/8/1
f 469/5/1 470/6/1 471/7/1 472/8/1

