# Tiled2Unity generated file. Do not modify by hand.
# Wavefront file for 'map1_mesh_0022.obj'

# Vertices (Count = 596)
v -1408 -160 0
v -1440 -160 0
v -1440 -128 0
v -1408 -128 0
v -1376 -160 0
v -1408 -160 0
v -1408 -128 0
v -1376 -128 0
v -1408 -192 0
v -1440 -192 0
v -1440 -160 0
v -1408 -160 0
v -1376 -192 0
v -1408 -192 0
v -1408 -160 0
v -1376 -160 0
v -1408 -224 0
v -1440 -224 0
v -1440 -192 0
v -1408 -192 0
v -1376 -224 0
v -1408 -224 0
v -1408 -192 0
v -1376 -192 0
v -1120 -256 0
v -1152 -256 0
v -1152 -224 0
v -1120 -224 0
v -1088 -256 0
v -1120 -256 0
v -1120 -224 0
v -1088 -224 0
v -1568 -288 0
v -1600 -288 0
v -1600 -256 0
v -1568 -256 0
v -1536 -288 0
v -1568 -288 0
v -1568 -256 0
v -1536 -256 0
v -1120 -288 0
v -1152 -288 0
v -1152 -256 0
v -1120 -256 0
v -1088 -288 0
v -1120 -288 0
v -1120 -256 0
v -1088 -256 0
v -1568 -320 0
v -1600 -320 0
v -1600 -288 0
v -1568 -288 0
v -1536 -320 0
v -1568 -320 0
v -1568 -288 0
v -1536 -288 0
v -1888 -352 0
v -1920 -352 0
v -1920 -320 0
v -1888 -320 0
v -1184 -384 0
v -1216 -384 0
v -1216 -352 0
v -1184 -352 0
v -1152 -384 0
v -1184 -384 0
v -1184 -352 0
v -1152 -352 0
v -2080 -416 0
v -2112 -416 0
v -2112 -384 0
v -2080 -384 0
v -1984 -416 0
v -2016 -416 0
v -2016 -384 0
v -1984 -384 0
v -1184 -416 0
v -1216 -416 0
v -1216 -384 0
v -1184 -384 0
v -1152 -416 0
v -1184 -416 0
v -1184 -384 0
v -1152 -384 0
v -992 -416 0
v -1024 -416 0
v -1024 -384 0
v -992 -384 0
v -960 -416 0
v -992 -416 0
v -992 -384 0
v -960 -384 0
v -1184 -448 0
v -1216 -448 0
v -1216 -416 0
v -1184 -416 0
v -1152 -448 0
v -1184 -448 0
v -1184 -416 0
v -1152 -416 0
v -992 -448 0
v -1024 -448 0
v -1024 -416 0
v -992 -416 0
v -960 -448 0
v -992 -448 0
v -992 -416 0
v -960 -416 0
v -1760 -480 0
v -1792 -480 0
v -1792 -448 0
v -1760 -448 0
v -1728 -480 0
v -1760 -480 0
v -1760 -448 0
v -1728 -448 0
v -1632 -480 0
v -1664 -480 0
v -1664 -448 0
v -1632 -448 0
v -1600 -480 0
v -1632 -480 0
v -1632 -448 0
v -1600 -448 0
v -1888 -512 0
v -1920 -512 0
v -1920 -480 0
v -1888 -480 0
v -1856 -512 0
v -1888 -512 0
v -1888 -480 0
v -1856 -480 0
v -1824 -512 0
v -1856 -512 0
v -1856 -480 0
v -1824 -480 0
v -1760 -512 0
v -1792 -512 0
v -1792 -480 0
v -1760 -480 0
v -1728 -512 0
v -1760 -512 0
v -1760 -480 0
v -1728 -480 0
v -1632 -512 0
v -1664 -512 0
v -1664 -480 0
v -1632 -480 0
v -1600 -512 0
v -1632 -512 0
v -1632 -480 0
v -1600 -480 0
v -1888 -544 0
v -1920 -544 0
v -1920 -512 0
v -1888 -512 0
v -1856 -544 0
v -1888 -544 0
v -1888 -512 0
v -1856 -512 0
v -1824 -544 0
v -1856 -544 0
v -1856 -512 0
v -1824 -512 0
v -1440 -544 0
v -1472 -544 0
v -1472 -512 0
v -1440 -512 0
v -1184 -544 0
v -1216 -544 0
v -1216 -512 0
v -1184 -512 0
v -1152 -544 0
v -1184 -544 0
v -1184 -512 0
v -1152 -512 0
v -1888 -576 0
v -1920 -576 0
v -1920 -544 0
v -1888 -544 0
v -1856 -576 0
v -1888 -576 0
v -1888 -544 0
v -1856 -544 0
v -1824 -576 0
v -1856 -576 0
v -1856 -544 0
v -1824 -544 0
v -1664 -576 0
v -1696 -576 0
v -1696 -544 0
v -1664 -544 0
v -1632 -576 0
v -1664 -576 0
v -1664 -544 0
v -1632 -544 0
v -1440 -576 0
v -1472 -576 0
v -1472 -544 0
v -1440 -544 0
v -1216 -576 0
v -1248 -576 0
v -1248 -544 0
v -1216 -544 0
v -1184 -576 0
v -1216 -576 0
v -1216 -544 0
v -1184 -544 0
v -1152 -576 0
v -1184 -576 0
v -1184 -544 0
v -1152 -544 0
v -1664 -608 0
v -1696 -608 0
v -1696 -576 0
v -1664 -576 0
v -1632 -608 0
v -1664 -608 0
v -1664 -576 0
v -1632 -576 0
v -992 -608 0
v -1024 -608 0
v -1024 -576 0
v -992 -576 0
v -960 -608 0
v -992 -608 0
v -992 -576 0
v -960 -576 0
v -1856 -640 0
v -1888 -640 0
v -1888 -608 0
v -1856 -608 0
v -1824 -640 0
v -1856 -640 0
v -1856 -608 0
v -1824 -608 0
v -1792 -640 0
v -1824 -640 0
v -1824 -608 0
v -1792 -608 0
v -1760 -640 0
v -1792 -640 0
v -1792 -608 0
v -1760 -608 0
v -1728 -640 0
v -1760 -640 0
v -1760 -608 0
v -1728 -608 0
v -1696 -640 0
v -1728 -640 0
v -1728 -608 0
v -1696 -608 0
v -1664 -640 0
v -1696 -640 0
v -1696 -608 0
v -1664 -608 0
v -1632 -640 0
v -1664 -640 0
v -1664 -608 0
v -1632 -608 0
v -992 -640 0
v -1024 -640 0
v -1024 -608 0
v -992 -608 0
v -960 -640 0
v -992 -640 0
v -992 -608 0
v -960 -608 0
v -1984 -672 0
v -2016 -672 0
v -2016 -640 0
v -1984 -640 0
v -1952 -672 0
v -1984 -672 0
v -1984 -640 0
v -1952 -640 0
v -1920 -672 0
v -1952 -672 0
v -1952 -640 0
v -1920 -640 0
v -1888 -672 0
v -1920 -672 0
v -1920 -640 0
v -1888 -640 0
v -1856 -672 0
v -1888 -672 0
v -1888 -640 0
v -1856 -640 0
v -1824 -672 0
v -1856 -672 0
v -1856 -640 0
v -1824 -640 0
v -1792 -672 0
v -1824 -672 0
v -1824 -640 0
v -1792 -640 0
v -1760 -672 0
v -1792 -672 0
v -1792 -640 0
v -1760 -640 0
v -1728 -672 0
v -1760 -672 0
v -1760 -640 0
v -1728 -640 0
v -1696 -672 0
v -1728 -672 0
v -1728 -640 0
v -1696 -640 0
v -992 -672 0
v -1024 -672 0
v -1024 -640 0
v -992 -640 0
v -960 -672 0
v -992 -672 0
v -992 -640 0
v -960 -640 0
v -1984 -704 0
v -2016 -704 0
v -2016 -672 0
v -1984 -672 0
v -1952 -704 0
v -1984 -704 0
v -1984 -672 0
v -1952 -672 0
v -1920 -704 0
v -1952 -704 0
v -1952 -672 0
v -1920 -672 0
v -1888 -704 0
v -1920 -704 0
v -1920 -672 0
v -1888 -672 0
v -1856 -704 0
v -1888 -704 0
v -1888 -672 0
v -1856 -672 0
v -1824 -704 0
v -1856 -704 0
v -1856 -672 0
v -1824 -672 0
v -1792 -704 0
v -1824 -704 0
v -1824 -672 0
v -1792 -672 0
v -1760 -704 0
v -1792 -704 0
v -1792 -672 0
v -1760 -672 0
v -1728 -704 0
v -1760 -704 0
v -1760 -672 0
v -1728 -672 0
v -1696 -704 0
v -1728 -704 0
v -1728 -672 0
v -1696 -672 0
v -1504 -704 0
v -1536 -704 0
v -1536 -672 0
v -1504 -672 0
v -1472 -704 0
v -1504 -704 0
v -1504 -672 0
v -1472 -672 0
v -1984 -736 0
v -2016 -736 0
v -2016 -704 0
v -1984 -704 0
v -1952 -736 0
v -1984 -736 0
v -1984 -704 0
v -1952 -704 0
v -1920 -736 0
v -1952 -736 0
v -1952 -704 0
v -1920 -704 0
v -1888 -736 0
v -1920 -736 0
v -1920 -704 0
v -1888 -704 0
v -1856 -736 0
v -1888 -736 0
v -1888 -704 0
v -1856 -704 0
v -1824 -736 0
v -1856 -736 0
v -1856 -704 0
v -1824 -704 0
v -1792 -736 0
v -1824 -736 0
v -1824 -704 0
v -1792 -704 0
v -1760 -736 0
v -1792 -736 0
v -1792 -704 0
v -1760 -704 0
v -1728 -736 0
v -1760 -736 0
v -1760 -704 0
v -1728 -704 0
v -1696 -736 0
v -1728 -736 0
v -1728 -704 0
v -1696 -704 0
v -1664 -736 0
v -1696 -736 0
v -1696 -704 0
v -1664 -704 0
v -1632 -736 0
v -1664 -736 0
v -1664 -704 0
v -1632 -704 0
v -1600 -736 0
v -1632 -736 0
v -1632 -704 0
v -1600 -704 0
v -1504 -736 0
v -1536 -736 0
v -1536 -704 0
v -1504 -704 0
v -1472 -736 0
v -1504 -736 0
v -1504 -704 0
v -1472 -704 0
v -1984 -768 0
v -2016 -768 0
v -2016 -736 0
v -1984 -736 0
v -1952 -768 0
v -1984 -768 0
v -1984 -736 0
v -1952 -736 0
v -1920 -768 0
v -1952 -768 0
v -1952 -736 0
v -1920 -736 0
v -1888 -768 0
v -1920 -768 0
v -1920 -736 0
v -1888 -736 0
v -1856 -768 0
v -1888 -768 0
v -1888 -736 0
v -1856 -736 0
v -1824 -768 0
v -1856 -768 0
v -1856 -736 0
v -1824 -736 0
v -1792 -768 0
v -1824 -768 0
v -1824 -736 0
v -1792 -736 0
v -1760 -768 0
v -1792 -768 0
v -1792 -736 0
v -1760 -736 0
v -1728 -768 0
v -1760 -768 0
v -1760 -736 0
v -1728 -736 0
v -1696 -768 0
v -1728 -768 0
v -1728 -736 0
v -1696 -736 0
v -1664 -768 0
v -1696 -768 0
v -1696 -736 0
v -1664 -736 0
v -1632 -768 0
v -1664 -768 0
v -1664 -736 0
v -1632 -736 0
v -1600 -768 0
v -1632 -768 0
v -1632 -736 0
v -1600 -736 0
v -1504 -768 0
v -1536 -768 0
v -1536 -736 0
v -1504 -736 0
v -1472 -768 0
v -1504 -768 0
v -1504 -736 0
v -1472 -736 0
v -1856 -800 0
v -1888 -800 0
v -1888 -768 0
v -1856 -768 0
v -1824 -800 0
v -1856 -800 0
v -1856 -768 0
v -1824 -768 0
v -1792 -800 0
v -1824 -800 0
v -1824 -768 0
v -1792 -768 0
v -1760 -800 0
v -1792 -800 0
v -1792 -768 0
v -1760 -768 0
v -1728 -800 0
v -1760 -800 0
v -1760 -768 0
v -1728 -768 0
v -1696 -800 0
v -1728 -800 0
v -1728 -768 0
v -1696 -768 0
v -1664 -800 0
v -1696 -800 0
v -1696 -768 0
v -1664 -768 0
v -1632 -800 0
v -1664 -800 0
v -1664 -768 0
v -1632 -768 0
v -1600 -800 0
v -1632 -800 0
v -1632 -768 0
v -1600 -768 0
v -1856 -832 0
v -1888 -832 0
v -1888 -800 0
v -1856 -800 0
v -1824 -832 0
v -1856 -832 0
v -1856 -800 0
v -1824 -800 0
v -1792 -832 0
v -1824 -832 0
v -1824 -800 0
v -1792 -800 0
v -1760 -832 0
v -1792 -832 0
v -1792 -800 0
v -1760 -800 0
v -1728 -832 0
v -1760 -832 0
v -1760 -800 0
v -1728 -800 0
v -1696 -832 0
v -1728 -832 0
v -1728 -800 0
v -1696 -800 0
v -1728 -864 0
v -1760 -864 0
v -1760 -832 0
v -1728 -832 0
v -2016 -1152 0
v -2048 -1152 0
v -2048 -1120 0
v -2016 -1120 0
v -3168 -1184 0
v -3200 -1184 0
v -3200 -1152 0
v -3168 -1152 0
v -2016 -1184 0
v -2048 -1184 0
v -2048 -1152 0
v -2016 -1152 0
v -3168 -1216 0
v -3200 -1216 0
v -3200 -1184 0
v -3168 -1184 0
v -2400 -1216 0
v -2432 -1216 0
v -2432 -1184 0
v -2400 -1184 0
v -2400 -1248 0
v -2432 -1248 0
v -2432 -1216 0
v -2400 -1216 0
v -2624 -1280 0
v -2656 -1280 0
v -2656 -1248 0
v -2624 -1248 0
v -2624 -1312 0
v -2656 -1312 0
v -2656 -1280 0
v -2624 -1280 0
v -2784 -1472 0
v -2816 -1472 0
v -2816 -1440 0
v -2784 -1440 0
v -2784 -1504 0
v -2816 -1504 0
v -2816 -1472 0
v -2784 -1472 0
v -2336 -1600 0
v -2368 -1600 0
v -2368 -1568 0
v -2336 -1568 0
v -2336 -1632 0
v -2368 -1632 0
v -2368 -1600 0
v -2336 -1600 0

# Texture cooridinates (Count = 109)
vt 0.3125 0.25
vt 0.375 0.25
vt 0.375 0.3125
vt 0.3125 0.3125
vt 0.25 0.25
vt 0.25 0.3125
vt 0.3125 0.1875
vt 0.375 0.1875
vt 0.25 0.1875
vt 0.3125 0.125
vt 0.375 0.125
vt 0.25 0.125
vt 0.1875 0.0625
vt 0.25 0.0625
vt 0.1875 0.125
vt 0.125 0.0625
vt 0.125 0.125
vt 0.0625 0.0625
vt 0.0625 0.125
vt 0 0.0625
vt 0 0.125
vt 0.1875 0
vt 0.25 0
vt 0.125 0
vt 0.0625 0
vt 0 0
vt 0.4375 0.3125
vt 0.4375 0.375
vt 0.375 0.375
vt 0.3125 0.4375
vt 0.375 0.4375
vt 0.375 0.5
vt 0.3125 0.5
vt 0.25 0.4375
vt 0.25 0.5
vt 0.4375 0.4375
vt 0.3125 0.375
vt 0.25 0.375
vt 0.8125 0.5625
vt 0.875 0.5625
vt 0.875 0.625
vt 0.8125 0.625
vt 0.75 0.5625
vt 0.75 0.625
vt 0.9375 0.4375
vt 1 0.4375
vt 1 0.5
vt 0.9375 0.5
vt 0.875 0.4375
vt 0.875 0.5
vt 0.8125 0.4375
vt 0.8125 0.5
vt 0.75 0.5
vt 0.9375 0.375
vt 1 0.375
vt 0.875 0.375
vt 0.8125 0.375
vt 0.3125 0.5625
vt 0.375 0.5625
vt 0.375 0.625
vt 0.3125 0.625
vt 0.5625 0.5
vt 0.625 0.5
vt 0.625 0.5625
vt 0.5625 0.5625
vt 0.5 0.5
vt 0.5 0.5625
vt 0.9375 0.3125
vt 1 0.3125
vt 0.875 0.3125
vt 0.8125 0.3125
vt 0.0625 0.25
vt 0.125 0.25
vt 0.125 0.3125
vt 0.0625 0.3125
vt 0 0.25
vt 0 0.3125
vt 0.625 0.4375
vt 0.6875 0.4375
vt 0.6875 0.5
vt 0.5625 0.4375
vt 0.5 0.4375
vt 0.0625 0.1875
vt 0.125 0.1875
vt 0 0.1875
vt 0.8125 0.9375
vt 0.875 0.9375
vt 0.875 1
vt 0.8125 1
vt 0.75 0.9375
vt 0.75 1
vt 0.6875 0.9375
vt 0.6875 1
vt 0.8125 0.875
vt 0.875 0.875
vt 0.75 0.875
vt 0.75 0.8125
vt 0.8125 0.8125
vt 0.6875 0.875
vt 0.8125 0.75
vt 0.875 0.75
vt 0.875 0.8125
vt 0.75 0.75
vt 0.6875 0.75
vt 0.6875 0.8125
vt 0.875 0.6875
vt 0.9375 0.6875
vt 0.9375 0.75
vt 0.9375 0.625

# Normal
vn 0 0 -1

# Mesh description
g map1_mesh_0022

# Faces
f 1/1/1 2/2/1 3/3/1 4/4/1
f 5/5/1 6/1/1 7/4/1 8/6/1
f 9/7/1 10/8/1 11/2/1 12/1/1
f 13/9/1 14/7/1 15/1/1 16/5/1
f 17/10/1 18/11/1 19/8/1 20/7/1
f 21/12/1 22/10/1 23/7/1 24/9/1
f 25/13/1 26/14/1 27/12/1 28/15/1
f 29/16/1 30/13/1 31/15/1 32/17/1
f 33/18/1 34/16/1 35/17/1 36/19/1
f 37/20/1 38/18/1 39/19/1 40/21/1
f 41/22/1 42/23/1 43/14/1 44/13/1
f 45/24/1 46/22/1 47/13/1 48/16/1
f 49/25/1 50/24/1 51/16/1 52/18/1
f 53/26/1 54/25/1 55/18/1 56/20/1
f 57/3/1 58/27/1 59/28/1 60/29/1
f 61/30/1 62/31/1 63/32/1 64/33/1
f 65/34/1 66/30/1 67/33/1 68/35/1
f 69/29/1 70/28/1 71/36/1 72/31/1
f 73/3/1 74/27/1 75/28/1 76/29/1
f 77/37/1 78/29/1 79/31/1 80/30/1
f 81/38/1 82/37/1 83/30/1 84/34/1
f 85/18/1 86/16/1 87/17/1 88/19/1
f 89/20/1 90/18/1 91/19/1 92/21/1
f 93/4/1 94/3/1 95/29/1 96/37/1
f 97/6/1 98/4/1 99/37/1 100/38/1
f 101/25/1 102/24/1 103/16/1 104/18/1
f 105/26/1 106/25/1 107/18/1 108/20/1
f 109/39/1 110/40/1 111/41/1 112/42/1
f 113/43/1 114/39/1 115/42/1 116/44/1
f 117/13/1 118/14/1 119/12/1 120/15/1
f 121/16/1 122/13/1 123/15/1 124/17/1
f 125/45/1 126/46/1 127/47/1 128/48/1
f 129/49/1 130/45/1 131/48/1 132/50/1
f 133/51/1 134/49/1 135/50/1 136/52/1
f 137/52/1 138/50/1 139/40/1 140/39/1
f 141/53/1 142/52/1 143/39/1 144/43/1
f 145/22/1 146/23/1 147/14/1 148/13/1
f 149/24/1 150/22/1 151/13/1 152/16/1
f 153/54/1 154/55/1 155/46/1 156/45/1
f 157/56/1 158/54/1 159/45/1 160/49/1
f 161/57/1 162/56/1 163/49/1 164/51/1
f 165/58/1 166/59/1 167/60/1 168/61/1
f 169/62/1 170/63/1 171/64/1 172/65/1
f 173/66/1 174/62/1 175/65/1 176/67/1
f 177/68/1 178/69/1 179/55/1 180/54/1
f 181/70/1 182/68/1 183/54/1 184/56/1
f 185/71/1 186/70/1 187/56/1 188/57/1
f 189/72/1 190/73/1 191/74/1 192/75/1
f 193/76/1 194/72/1 195/75/1 196/77/1
f 197/33/1 198/32/1 199/59/1 200/58/1
f 201/78/1 202/79/1 203/80/1 204/63/1
f 205/81/1 206/78/1 207/63/1 208/62/1
f 209/82/1 210/81/1 211/62/1 212/66/1
f 213/83/1 214/84/1 215/73/1 216/72/1
f 217/85/1 218/83/1 219/72/1 220/76/1
f 221/1/1 222/2/1 223/3/1 224/4/1
f 225/5/1 226/1/1 227/4/1 228/6/1
f 229/86/1 230/87/1 231/88/1 232/89/1
f 233/90/1 234/86/1 235/89/1 236/91/1
f 237/90/1 238/86/1 239/89/1 240/91/1
f 241/90/1 242/86/1 243/89/1 244/91/1
f 245/90/1 246/86/1 247/89/1 248/91/1
f 249/92/1 250/90/1 251/91/1 252/93/1
f 253/19/1 254/17/1 255/84/1 256/83/1
f 257/21/1 258/19/1 259/83/1 260/85/1
f 261/7/1 262/8/1 263/2/1 264/1/1
f 265/9/1 266/7/1 267/1/1 268/5/1
f 269/86/1 270/87/1 271/88/1 272/89/1
f 273/90/1 274/86/1 275/89/1 276/91/1
f 277/90/1 278/86/1 279/89/1 280/91/1
f 281/90/1 282/86/1 283/89/1 284/91/1
f 285/94/1 286/95/1 287/87/1 288/86/1
f 289/96/1 290/94/1 291/86/1 292/90/1
f 293/97/1 294/98/1 295/94/1 296/96/1
f 297/96/1 298/94/1 299/86/1 300/90/1
f 301/96/1 302/94/1 303/86/1 304/90/1
f 305/99/1 306/96/1 307/90/1 308/92/1
f 309/10/1 310/11/1 311/8/1 312/7/1
f 313/12/1 314/10/1 315/7/1 316/9/1
f 317/94/1 318/95/1 319/87/1 320/86/1
f 321/96/1 322/94/1 323/86/1 324/90/1
f 325/97/1 326/98/1 327/94/1 328/96/1
f 329/97/1 330/98/1 331/94/1 332/96/1
f 333/96/1 334/94/1 335/86/1 336/90/1
f 337/97/1 338/98/1 339/94/1 340/96/1
f 341/97/1 342/98/1 343/94/1 344/96/1
f 345/96/1 346/94/1 347/86/1 348/90/1
f 349/97/1 350/98/1 351/94/1 352/96/1
f 353/99/1 354/96/1 355/90/1 356/92/1
f 357/1/1 358/2/1 359/3/1 360/4/1
f 361/5/1 362/1/1 363/4/1 364/6/1
f 365/94/1 366/95/1 367/87/1 368/86/1
f 369/97/1 370/98/1 371/94/1 372/96/1
f 373/97/1 374/98/1 375/94/1 376/96/1
f 377/96/1 378/94/1 379/86/1 380/90/1
f 381/97/1 382/98/1 383/94/1 384/96/1
f 385/96/1 386/94/1 387/86/1 388/90/1
f 389/96/1 390/94/1 391/86/1 392/90/1
f 393/97/1 394/98/1 395/94/1 396/96/1
f 397/97/1 398/98/1 399/94/1 400/96/1
f 401/97/1 402/98/1 403/94/1 404/96/1
f 405/86/1 406/87/1 407/88/1 408/89/1
f 409/90/1 410/86/1 411/89/1 412/91/1
f 413/92/1 414/90/1 415/91/1 416/93/1
f 417/7/1 418/8/1 419/2/1 420/1/1
f 421/9/1 422/7/1 423/1/1 424/5/1
f 425/100/1 426/101/1 427/102/1 428/98/1
f 429/103/1 430/100/1 431/98/1 432/97/1
f 433/103/1 434/100/1 435/98/1 436/97/1
f 437/104/1 438/103/1 439/97/1 440/105/1
f 441/98/1 442/102/1 443/95/1 444/94/1
f 445/97/1 446/98/1 447/94/1 448/96/1
f 449/96/1 450/94/1 451/86/1 452/90/1
f 453/97/1 454/98/1 455/94/1 456/96/1
f 457/96/1 458/94/1 459/86/1 460/90/1
f 461/97/1 462/98/1 463/94/1 464/96/1
f 465/97/1 466/98/1 467/94/1 468/96/1
f 469/96/1 470/94/1 471/86/1 472/90/1
f 473/105/1 474/97/1 475/96/1 476/99/1
f 477/10/1 478/11/1 479/8/1 480/7/1
f 481/12/1 482/10/1 483/7/1 484/9/1
f 485/98/1 486/102/1 487/95/1 488/94/1
f 489/97/1 490/98/1 491/94/1 492/96/1
f 493/97/1 494/98/1 495/94/1 496/96/1
f 497/96/1 498/94/1 499/86/1 500/90/1
f 501/97/1 502/98/1 503/94/1 504/96/1
f 505/96/1 506/94/1 507/86/1 508/90/1
f 509/103/1 510/100/1 511/98/1 512/97/1
f 513/103/1 514/100/1 515/98/1 516/97/1
f 517/104/1 518/103/1 519/97/1 520/105/1
f 521/100/1 522/101/1 523/102/1 524/98/1
f 525/103/1 526/100/1 527/98/1 528/97/1
f 529/103/1 530/100/1 531/98/1 532/97/1
f 533/103/1 534/100/1 535/98/1 536/97/1
f 537/97/1 538/98/1 539/94/1 540/96/1
f 541/104/1 542/103/1 543/97/1 544/105/1
f 545/103/1 546/100/1 547/98/1 548/97/1
f 549/106/1 550/107/1 551/108/1 552/101/1
f 553/106/1 554/107/1 555/108/1 556/101/1
f 557/41/1 558/109/1 559/107/1 560/106/1
f 561/41/1 562/109/1 563/107/1 564/106/1
f 565/106/1 566/107/1 567/108/1 568/101/1
f 569/41/1 570/109/1 571/107/1 572/106/1
f 573/106/1 574/107/1 575/108/1 576/101/1
f 577/41/1 578/109/1 579/107/1 580/106/1
f 581/106/1 582/107/1 583/108/1 584/101/1
f 585/41/1 586/109/1 587/107/1 588/106/1
f 589/106/1 590/107/1 591/108/1 592/101/1
f 593/41/1 594/109/1 595/107/1 596/106/1

