# Tiled2Unity generated file. Do not modify by hand.
# Wavefront file for 'map1_mesh_0023.obj'

# Vertices (Count = 156)
v -3200 -192 0
v -3232 -192 0
v -3232 -160 0
v -3200 -160 0
v -3168 -192 0
v -3200 -192 0
v -3200 -160 0
v -3168 -160 0
v -3136 -192 0
v -3168 -192 0
v -3168 -160 0
v -3136 -160 0
v -3104 -192 0
v -3136 -192 0
v -3136 -160 0
v -3104 -160 0
v -3072 -192 0
v -3104 -192 0
v -3104 -160 0
v -3072 -160 0
v -3040 -192 0
v -3072 -192 0
v -3072 -160 0
v -3040 -160 0
v -3008 -192 0
v -3040 -192 0
v -3040 -160 0
v -3008 -160 0
v -2976 -192 0
v -3008 -192 0
v -3008 -160 0
v -2976 -160 0
v -2944 -192 0
v -2976 -192 0
v -2976 -160 0
v -2944 -160 0
v -2912 -192 0
v -2944 -192 0
v -2944 -160 0
v -2912 -160 0
v -2880 -192 0
v -2912 -192 0
v -2912 -160 0
v -2880 -160 0
v -2848 -192 0
v -2880 -192 0
v -2880 -160 0
v -2848 -160 0
v -2816 -192 0
v -2848 -192 0
v -2848 -160 0
v -2816 -160 0
v -2784 -192 0
v -2816 -192 0
v -2816 -160 0
v -2784 -160 0
v -2752 -192 0
v -2784 -192 0
v -2784 -160 0
v -2752 -160 0
v -2720 -192 0
v -2752 -192 0
v -2752 -160 0
v -2720 -160 0
v -2688 -192 0
v -2720 -192 0
v -2720 -160 0
v -2688 -160 0
v -2656 -192 0
v -2688 -192 0
v -2688 -160 0
v -2656 -160 0
v -2624 -192 0
v -2656 -192 0
v -2656 -160 0
v -2624 -160 0
v -2592 -192 0
v -2624 -192 0
v -2624 -160 0
v -2592 -160 0
v -2560 -192 0
v -2592 -192 0
v -2592 -160 0
v -2560 -160 0
v -2528 -192 0
v -2560 -192 0
v -2560 -160 0
v -2528 -160 0
v -2496 -192 0
v -2528 -192 0
v -2528 -160 0
v -2496 -160 0
v -2464 -192 0
v -2496 -192 0
v -2496 -160 0
v -2464 -160 0
v -2432 -192 0
v -2464 -192 0
v -2464 -160 0
v -2432 -160 0
v -2400 -192 0
v -2432 -192 0
v -2432 -160 0
v -2400 -160 0
v -2368 -192 0
v -2400 -192 0
v -2400 -160 0
v -2368 -160 0
v -2368 -224 0
v -2400 -224 0
v -2400 -192 0
v -2368 -192 0
v -2368 -256 0
v -2400 -256 0
v -2400 -224 0
v -2368 -224 0
v -2368 -288 0
v -2400 -288 0
v -2400 -256 0
v -2368 -256 0
v -2368 -320 0
v -2400 -320 0
v -2400 -288 0
v -2368 -288 0
v -2368 -352 0
v -2400 -352 0
v -2400 -320 0
v -2368 -320 0
v -2368 -384 0
v -2400 -384 0
v -2400 -352 0
v -2368 -352 0
v -2368 -416 0
v -2400 -416 0
v -2400 -384 0
v -2368 -384 0
v -2368 -448 0
v -2400 -448 0
v -2400 -416 0
v -2368 -416 0
v -2368 -480 0
v -2400 -480 0
v -2400 -448 0
v -2368 -448 0
v -2432 -512 0
v -2464 -512 0
v -2464 -480 0
v -2432 -480 0
v -2400 -512 0
v -2432 -512 0
v -2432 -480 0
v -2400 -480 0
v -2368 -512 0
v -2400 -512 0
v -2400 -480 0
v -2368 -480 0

# Texture cooridinates (Count = 16)
vt 0.46875 0.875
vt 0.5 0.875
vt 0.5 0.90625
vt 0.46875 0.90625
vt 0.4375 0.875
vt 0.4375 0.90625
vt 0.53125 0.84375
vt 0.5625 0.84375
vt 0.5625 0.875
vt 0.53125 0.875
vt 0.46875 0.8125
vt 0.5 0.8125
vt 0.5 0.84375
vt 0.46875 0.84375
vt 0.4375 0.8125
vt 0.4375 0.84375

# Normal
vn 0 0 -1

# Mesh description
g map1_mesh_0023

# Faces
f 1/1/1 2/2/1 3/3/1 4/4/1
f 5/1/1 6/2/1 7/3/1 8/4/1
f 9/1/1 10/2/1 11/3/1 12/4/1
f 13/1/1 14/2/1 15/3/1 16/4/1
f 17/1/1 18/2/1 19/3/1 20/4/1
f 21/1/1 22/2/1 23/3/1 24/4/1
f 25/1/1 26/2/1 27/3/1 28/4/1
f 29/1/1 30/2/1 31/3/1 32/4/1
f 33/1/1 34/2/1 35/3/1 36/4/1
f 37/1/1 38/2/1 39/3/1 40/4/1
f 41/1/1 42/2/1 43/3/1 44/4/1
f 45/1/1 46/2/1 47/3/1 48/4/1
f 49/1/1 50/2/1 51/3/1 52/4/1
f 53/1/1 54/2/1 55/3/1 56/4/1
f 57/1/1 58/2/1 59/3/1 60/4/1
f 61/1/1 62/2/1 63/3/1 64/4/1
f 65/1/1 66/2/1 67/3/1 68/4/1
f 69/1/1 70/2/1 71/3/1 72/4/1
f 73/1/1 74/2/1 75/3/1 76/4/1
f 77/1/1 78/2/1 79/3/1 80/4/1
f 81/1/1 82/2/1 83/3/1 84/4/1
f 85/1/1 86/2/1 87/3/1 88/4/1
f 89/1/1 90/2/1 91/3/1 92/4/1
f 93/1/1 94/2/1 95/3/1 96/4/1
f 97/1/1 98/2/1 99/3/1 100/4/1
f 101/1/1 102/2/1 103/3/1 104/4/1
f 105/5/1 106/1/1 107/4/1 108/6/1
f 109/7/1 110/8/1 111/9/1 112/10/1
f 113/7/1 114/8/1 115/9/1 116/10/1
f 117/7/1 118/8/1 119/9/1 120/10/1
f 121/7/1 122/8/1 123/9/1 124/10/1
f 125/7/1 126/8/1 127/9/1 128/10/1
f 129/7/1 130/8/1 131/9/1 132/10/1
f 133/7/1 134/8/1 135/9/1 136/10/1
f 137/7/1 138/8/1 139/9/1 140/10/1
f 141/7/1 142/8/1 143/9/1 144/10/1
f 145/11/1 146/12/1 147/13/1 148/14/1
f 149/11/1 150/12/1 151/13/1 152/14/1
f 153/15/1 154/11/1 155/14/1 156/16/1

