# Tiled2Unity generated file. Do not modify by hand.
# Wavefront file for 'map1_mesh_0009.obj'

# Vertices (Count = 172)
v -3040 -64 0
v -3072 -64 0
v -3072 -32 0
v -3040 -32 0
v -3008 -64 0
v -3040 -64 0
v -3040 -32 0
v -3008 -32 0
v -3072 -96 0
v -3104 -96 0
v -3104 -64 0
v -3072 -64 0
v -2912 -96 0
v -2944 -96 0
v -2944 -64 0
v -2912 -64 0
v -2688 -96 0
v -2720 -96 0
v -2720 -64 0
v -2688 -64 0
v -2496 -96 0
v -2528 -96 0
v -2528 -64 0
v -2496 -64 0
v -2400 -96 0
v -2432 -96 0
v -2432 -64 0
v -2400 -64 0
v -3072 -128 0
v -3104 -128 0
v -3104 -96 0
v -3072 -96 0
v -2880 -128 0
v -2912 -128 0
v -2912 -96 0
v -2880 -96 0
v -2848 -128 0
v -2880 -128 0
v -2880 -96 0
v -2848 -96 0
v -2752 -128 0
v -2784 -128 0
v -2784 -96 0
v -2752 -96 0
v -3072 -160 0
v -3104 -160 0
v -3104 -128 0
v -3072 -128 0
v -2880 -160 0
v -2912 -160 0
v -2912 -128 0
v -2880 -128 0
v -2848 -160 0
v -2880 -160 0
v -2880 -128 0
v -2848 -128 0
v -2816 -160 0
v -2848 -160 0
v -2848 -128 0
v -2816 -128 0
v -2784 -160 0
v -2816 -160 0
v -2816 -128 0
v -2784 -128 0
v -2688 -160 0
v -2720 -160 0
v -2720 -128 0
v -2688 -128 0
v -2624 -160 0
v -2656 -160 0
v -2656 -128 0
v -2624 -128 0
v -3072 -192 0
v -3104 -192 0
v -3104 -160 0
v -3072 -160 0
v -3008 -192 0
v -3040 -192 0
v -3040 -160 0
v -3008 -160 0
v -2976 -192 0
v -3008 -192 0
v -3008 -160 0
v -2976 -160 0
v -2944 -192 0
v -2976 -192 0
v -2976 -160 0
v -2944 -160 0
v -2912 -192 0
v -2944 -192 0
v -2944 -160 0
v -2912 -160 0
v -2880 -192 0
v -2912 -192 0
v -2912 -160 0
v -2880 -160 0
v -2848 -192 0
v -2880 -192 0
v -2880 -160 0
v -2848 -160 0
v -3072 -224 0
v -3104 -224 0
v -3104 -192 0
v -3072 -192 0
v -3040 -224 0
v -3072 -224 0
v -3072 -192 0
v -3040 -192 0
v -3008 -224 0
v -3040 -224 0
v -3040 -192 0
v -3008 -192 0
v -2848 -224 0
v -2880 -224 0
v -2880 -192 0
v -2848 -192 0
v -2432 -224 0
v -2464 -224 0
v -2464 -192 0
v -2432 -192 0
v -3104 -256 0
v -3136 -256 0
v -3136 -224 0
v -3104 -224 0
v -3072 -256 0
v -3104 -256 0
v -3104 -224 0
v -3072 -224 0
v -3040 -256 0
v -3072 -256 0
v -3072 -224 0
v -3040 -224 0
v -3104 -288 0
v -3136 -288 0
v -3136 -256 0
v -3104 -256 0
v -3072 -288 0
v -3104 -288 0
v -3104 -256 0
v -3072 -256 0
v -3040 -288 0
v -3072 -288 0
v -3072 -256 0
v -3040 -256 0
v -3040 -320 0
v -3072 -320 0
v -3072 -288 0
v -3040 -288 0
v -3168 -352 0
v -3200 -352 0
v -3200 -320 0
v -3168 -320 0
v -3136 -352 0
v -3168 -352 0
v -3168 -320 0
v -3136 -320 0
v -3168 -384 0
v -3200 -384 0
v -3200 -352 0
v -3168 -352 0
v -3136 -384 0
v -3168 -384 0
v -3168 -352 0
v -3136 -352 0
v -3104 -384 0
v -3136 -384 0
v -3136 -352 0
v -3104 -352 0
v -3040 -416 0
v -3072 -416 0
v -3072 -384 0
v -3040 -384 0

# Texture cooridinates (Count = 48)
vt 0.25 0.5
vt 0.3125 0.5
vt 0.3125 0.5625
vt 0.25 0.5625
vt 0.375 0.3125
vt 0.4375 0.3125
vt 0.4375 0.375
vt 0.375 0.375
vt 0.3125 0.4375
vt 0.375 0.4375
vt 0.375 0.5
vt 0.4375 0.4375
vt 0.5 0.4375
vt 0.5 0.5
vt 0.4375 0.5
vt 0.4375 0.5625
vt 0.375 0.5625
vt 0.4375 0.1875
vt 0.5 0.1875
vt 0.5 0.25
vt 0.4375 0.25
vt 0.3125 0
vt 0.375 0
vt 0.375 0.0625
vt 0.3125 0.0625
vt 0.4375 0.0625
vt 0.5 0.0625
vt 0.5 0.125
vt 0.4375 0.125
vt 0.375 0.125
vt 0.375 0.1875
vt 0.5 0.3125
vt 0.3125 0.1875
vt 0.375 0.25
vt 0.3125 0.25
vt 0.3125 0.125
vt 0.5 0.375
vt 0.3125 0.375
vt 0.4375 0
vt 0.25 0.3125
vt 0.3125 0.3125
vt 0.25 0.375
vt 0.25 0
vt 0.25 0.0625
vt 0.25 0.25
vt 0.25 0.125
vt 0.25 0.1875
vt 0.5 0

# Normal
vn 0 0 -1

# Mesh description
g map1_mesh_0009

# Faces
f 1/1/1 2/2/1 3/3/1 4/4/1
f 5/5/1 6/6/1 7/7/1 8/8/1
f 9/9/1 10/10/1 11/11/1 12/2/1
f 13/12/1 14/13/1 15/14/1 16/15/1
f 17/11/1 18/15/1 19/16/1 20/17/1
f 21/18/1 22/19/1 23/20/1 24/21/1
f 25/22/1 26/23/1 27/24/1 28/25/1
f 29/10/1 30/12/1 31/15/1 32/11/1
f 33/26/1 34/27/1 35/28/1 36/29/1
f 37/30/1 38/29/1 39/18/1 40/31/1
f 41/11/1 42/15/1 43/16/1 44/17/1
f 45/21/1 46/20/1 47/32/1 48/6/1
f 49/29/1 50/28/1 51/19/1 52/18/1
f 53/33/1 54/31/1 55/34/1 56/35/1
f 57/25/1 58/24/1 59/30/1 60/36/1
f 61/25/1 62/24/1 63/30/1 64/36/1
f 65/29/1 66/28/1 67/19/1 68/18/1
f 69/6/1 70/32/1 71/37/1 72/7/1
f 73/30/1 74/29/1 75/18/1 76/31/1
f 77/1/1 78/2/1 79/3/1 80/4/1
f 81/34/1 82/21/1 83/6/1 84/5/1
f 85/26/1 86/27/1 87/28/1 88/29/1
f 89/38/1 90/8/1 91/10/1 92/9/1
f 93/22/1 94/23/1 95/24/1 96/25/1
f 97/12/1 98/13/1 99/14/1 100/15/1
f 101/34/1 102/21/1 103/6/1 104/5/1
f 105/23/1 106/39/1 107/26/1 108/24/1
f 109/40/1 110/41/1 111/38/1 112/42/1
f 113/35/1 114/34/1 115/5/1 116/41/1
f 117/12/1 118/13/1 119/14/1 120/15/1
f 121/31/1 122/18/1 123/21/1 124/34/1
f 125/43/1 126/22/1 127/25/1 128/44/1
f 129/5/1 130/6/1 131/7/1 132/8/1
f 133/45/1 134/35/1 135/41/1 136/40/1
f 137/25/1 138/24/1 139/30/1 140/36/1
f 141/24/1 142/26/1 143/29/1 144/30/1
f 145/34/1 146/21/1 147/6/1 148/5/1
f 149/12/1 150/13/1 151/14/1 152/15/1
f 153/46/1 154/36/1 155/33/1 156/47/1
f 157/25/1 158/24/1 159/30/1 160/36/1
f 161/6/1 162/32/1 163/37/1 164/7/1
f 165/39/1 166/48/1 167/27/1 168/26/1
f 169/21/1 170/20/1 171/32/1 172/6/1

