# Tiled2Unity generated file. Do not modify by hand.
# Wavefront file for 'map1_mesh_0002.obj'

# Vertices (Count = 680)
v -288 -32 0
v -320 -32 0
v -320 0 0
v -288 0 0
v -256 -32 0
v -288 -32 0
v -288 0 0
v -256 0 0
v -224 -32 0
v -256 -32 0
v -256 0 0
v -224 0 0
v -192 -32 0
v -224 -32 0
v -224 0 0
v -192 0 0
v -288 -64 0
v -320 -64 0
v -320 -32 0
v -288 -32 0
v -256 -64 0
v -288 -64 0
v -288 -32 0
v -256 -32 0
v -224 -64 0
v -256 -64 0
v -256 -32 0
v -224 -32 0
v -192 -64 0
v -224 -64 0
v -224 -32 0
v -192 -32 0
v -288 -96 0
v -320 -96 0
v -320 -64 0
v -288 -64 0
v -256 -96 0
v -288 -96 0
v -288 -64 0
v -256 -64 0
v -224 -96 0
v -256 -96 0
v -256 -64 0
v -224 -64 0
v -192 -96 0
v -224 -96 0
v -224 -64 0
v -192 -64 0
v -288 -128 0
v -320 -128 0
v -320 -96 0
v -288 -96 0
v -256 -128 0
v -288 -128 0
v -288 -96 0
v -256 -96 0
v -224 -128 0
v -256 -128 0
v -256 -96 0
v -224 -96 0
v -192 -128 0
v -224 -128 0
v -224 -96 0
v -192 -96 0
v -288 -160 0
v -320 -160 0
v -320 -128 0
v -288 -128 0
v -256 -160 0
v -288 -160 0
v -288 -128 0
v -256 -128 0
v -224 -160 0
v -256 -160 0
v -256 -128 0
v -224 -128 0
v -320 -192 0
v -352 -192 0
v -352 -160 0
v -320 -160 0
v -288 -192 0
v -320 -192 0
v -320 -160 0
v -288 -160 0
v -256 -192 0
v -288 -192 0
v -288 -160 0
v -256 -160 0
v -224 -192 0
v -256 -192 0
v -256 -160 0
v -224 -160 0
v -352 -224 0
v -384 -224 0
v -384 -192 0
v -352 -192 0
v -320 -224 0
v -352 -224 0
v -352 -192 0
v -320 -192 0
v -288 -224 0
v -320 -224 0
v -320 -192 0
v -288 -192 0
v -256 -224 0
v -288 -224 0
v -288 -192 0
v -256 -192 0
v -224 -224 0
v -256 -224 0
v -256 -192 0
v -224 -192 0
v -352 -256 0
v -384 -256 0
v -384 -224 0
v -352 -224 0
v -320 -256 0
v -352 -256 0
v -352 -224 0
v -320 -224 0
v -288 -256 0
v -320 -256 0
v -320 -224 0
v -288 -224 0
v -256 -256 0
v -288 -256 0
v -288 -224 0
v -256 -224 0
v -352 -288 0
v -384 -288 0
v -384 -256 0
v -352 -256 0
v -320 -288 0
v -352 -288 0
v -352 -256 0
v -320 -256 0
v -288 -288 0
v -320 -288 0
v -320 -256 0
v -288 -256 0
v -256 -288 0
v -288 -288 0
v -288 -256 0
v -256 -256 0
v -416 -320 0
v -448 -320 0
v -448 -288 0
v -416 -288 0
v -384 -320 0
v -416 -320 0
v -416 -288 0
v -384 -288 0
v -352 -320 0
v -384 -320 0
v -384 -288 0
v -352 -288 0
v -320 -320 0
v -352 -320 0
v -352 -288 0
v -320 -288 0
v -288 -320 0
v -320 -320 0
v -320 -288 0
v -288 -288 0
v -256 -320 0
v -288 -320 0
v -288 -288 0
v -256 -288 0
v -384 -352 0
v -416 -352 0
v -416 -320 0
v -384 -320 0
v -352 -352 0
v -384 -352 0
v -384 -320 0
v -352 -320 0
v -320 -352 0
v -352 -352 0
v -352 -320 0
v -320 -320 0
v -288 -352 0
v -320 -352 0
v -320 -320 0
v -288 -320 0
v -480 -384 0
v -512 -384 0
v -512 -352 0
v -480 -352 0
v -448 -384 0
v -480 -384 0
v -480 -352 0
v -448 -352 0
v -416 -384 0
v -448 -384 0
v -448 -352 0
v -416 -352 0
v -384 -384 0
v -416 -384 0
v -416 -352 0
v -384 -352 0
v -352 -384 0
v -384 -384 0
v -384 -352 0
v -352 -352 0
v -320 -384 0
v -352 -384 0
v -352 -352 0
v -320 -352 0
v -288 -384 0
v -320 -384 0
v -320 -352 0
v -288 -352 0
v -448 -416 0
v -480 -416 0
v -480 -384 0
v -448 -384 0
v -416 -416 0
v -448 -416 0
v -448 -384 0
v -416 -384 0
v -384 -416 0
v -416 -416 0
v -416 -384 0
v -384 -384 0
v -352 -416 0
v -384 -416 0
v -384 -384 0
v -352 -384 0
v -320 -416 0
v -352 -416 0
v -352 -384 0
v -320 -384 0
v -288 -416 0
v -320 -416 0
v -320 -384 0
v -288 -384 0
v -384 -448 0
v -416 -448 0
v -416 -416 0
v -384 -416 0
v -352 -448 0
v -384 -448 0
v -384 -416 0
v -352 -416 0
v -320 -448 0
v -352 -448 0
v -352 -416 0
v -320 -416 0
v -320 -480 0
v -352 -480 0
v -352 -448 0
v -320 -448 0
v -320 -512 0
v -352 -512 0
v -352 -480 0
v -320 -480 0
v -320 -544 0
v -352 -544 0
v -352 -512 0
v -320 -512 0
v -320 -576 0
v -352 -576 0
v -352 -544 0
v -320 -544 0
v -320 -608 0
v -352 -608 0
v -352 -576 0
v -320 -576 0
v -320 -640 0
v -352 -640 0
v -352 -608 0
v -320 -608 0
v -320 -672 0
v -352 -672 0
v -352 -640 0
v -320 -640 0
v -320 -704 0
v -352 -704 0
v -352 -672 0
v -320 -672 0
v -320 -736 0
v -352 -736 0
v -352 -704 0
v -320 -704 0
v -320 -768 0
v -352 -768 0
v -352 -736 0
v -320 -736 0
v -320 -800 0
v -352 -800 0
v -352 -768 0
v -320 -768 0
v -320 -832 0
v -352 -832 0
v -352 -800 0
v -320 -800 0
v -320 -864 0
v -352 -864 0
v -352 -832 0
v -320 -832 0
v -320 -896 0
v -352 -896 0
v -352 -864 0
v -320 -864 0
v -320 -928 0
v -352 -928 0
v -352 -896 0
v -320 -896 0
v -320 -960 0
v -352 -960 0
v -352 -928 0
v -320 -928 0
v -320 -992 0
v -352 -992 0
v -352 -960 0
v -320 -960 0
v -320 -1024 0
v -352 -1024 0
v -352 -992 0
v -320 -992 0
v -320 -1056 0
v -352 -1056 0
v -352 -1024 0
v -320 -1024 0
v -320 -1088 0
v -352 -1088 0
v -352 -1056 0
v -320 -1056 0
v -320 -1120 0
v -352 -1120 0
v -352 -1088 0
v -320 -1088 0
v -320 -1152 0
v -352 -1152 0
v -352 -1120 0
v -320 -1120 0
v -320 -1184 0
v -352 -1184 0
v -352 -1152 0
v -320 -1152 0
v -320 -1216 0
v -352 -1216 0
v -352 -1184 0
v -320 -1184 0
v -320 -1248 0
v -352 -1248 0
v -352 -1216 0
v -320 -1216 0
v -320 -1280 0
v -352 -1280 0
v -352 -1248 0
v -320 -1248 0
v -320 -1312 0
v -352 -1312 0
v -352 -1280 0
v -320 -1280 0
v -3200 -1344 0
v -3232 -1344 0
v -3232 -1312 0
v -3200 -1312 0
v -3168 -1344 0
v -3200 -1344 0
v -3200 -1312 0
v -3168 -1312 0
v -3136 -1344 0
v -3168 -1344 0
v -3168 -1312 0
v -3136 -1312 0
v -320 -1344 0
v -352 -1344 0
v -352 -1312 0
v -320 -1312 0
v -3200 -1376 0
v -3232 -1376 0
v -3232 -1344 0
v -3200 -1344 0
v -3168 -1376 0
v -3200 -1376 0
v -3200 -1344 0
v -3168 -1344 0
v -3136 -1376 0
v -3168 -1376 0
v -3168 -1344 0
v -3136 -1344 0
v -320 -1376 0
v -352 -1376 0
v -352 -1344 0
v -320 -1344 0
v -3200 -1408 0
v -3232 -1408 0
v -3232 -1376 0
v -3200 -1376 0
v -3168 -1408 0
v -3200 -1408 0
v -3200 -1376 0
v -3168 -1376 0
v -3136 -1408 0
v -3168 -1408 0
v -3168 -1376 0
v -3136 -1376 0
v -3104 -1408 0
v -3136 -1408 0
v -3136 -1376 0
v -3104 -1376 0
v -320 -1408 0
v -352 -1408 0
v -352 -1376 0
v -320 -1376 0
v -3200 -1440 0
v -3232 -1440 0
v -3232 -1408 0
v -3200 -1408 0
v -3168 -1440 0
v -3200 -1440 0
v -3200 -1408 0
v -3168 -1408 0
v -3136 -1440 0
v -3168 -1440 0
v -3168 -1408 0
v -3136 -1408 0
v -352 -1440 0
v -384 -1440 0
v -384 -1408 0
v -352 -1408 0
v -320 -1440 0
v -352 -1440 0
v -352 -1408 0
v -320 -1408 0
v -3200 -1472 0
v -3232 -1472 0
v -3232 -1440 0
v -3200 -1440 0
v -3168 -1472 0
v -3200 -1472 0
v -3200 -1440 0
v -3168 -1440 0
v -3136 -1472 0
v -3168 -1472 0
v -3168 -1440 0
v -3136 -1440 0
v -352 -1472 0
v -384 -1472 0
v -384 -1440 0
v -352 -1440 0
v -320 -1472 0
v -352 -1472 0
v -352 -1440 0
v -320 -1440 0
v -3200 -1504 0
v -3232 -1504 0
v -3232 -1472 0
v -3200 -1472 0
v -3168 -1504 0
v -3200 -1504 0
v -3200 -1472 0
v -3168 -1472 0
v -352 -1504 0
v -384 -1504 0
v -384 -1472 0
v -352 -1472 0
v -320 -1504 0
v -352 -1504 0
v -352 -1472 0
v -320 -1472 0
v -3200 -1536 0
v -3232 -1536 0
v -3232 -1504 0
v -3200 -1504 0
v -3168 -1536 0
v -3200 -1536 0
v -3200 -1504 0
v -3168 -1504 0
v -352 -1536 0
v -384 -1536 0
v -384 -1504 0
v -352 -1504 0
v -320 -1536 0
v -352 -1536 0
v -352 -1504 0
v -320 -1504 0
v -3200 -1568 0
v -3232 -1568 0
v -3232 -1536 0
v -3200 -1536 0
v -3168 -1568 0
v -3200 -1568 0
v -3200 -1536 0
v -3168 -1536 0
v -2944 -1568 0
v -2976 -1568 0
v -2976 -1536 0
v -2944 -1536 0
v -2912 -1568 0
v -2944 -1568 0
v -2944 -1536 0
v -2912 -1536 0
v -352 -1568 0
v -384 -1568 0
v -384 -1536 0
v -352 -1536 0
v -320 -1568 0
v -352 -1568 0
v -352 -1536 0
v -320 -1536 0
v -3200 -1600 0
v -3232 -1600 0
v -3232 -1568 0
v -3200 -1568 0
v -3168 -1600 0
v -3200 -1600 0
v -3200 -1568 0
v -3168 -1568 0
v -3136 -1600 0
v -3168 -1600 0
v -3168 -1568 0
v -3136 -1568 0
v -3104 -1600 0
v -3136 -1600 0
v -3136 -1568 0
v -3104 -1568 0
v -3072 -1600 0
v -3104 -1600 0
v -3104 -1568 0
v -3072 -1568 0
v -3040 -1600 0
v -3072 -1600 0
v -3072 -1568 0
v -3040 -1568 0
v -3008 -1600 0
v -3040 -1600 0
v -3040 -1568 0
v -3008 -1568 0
v -2976 -1600 0
v -3008 -1600 0
v -3008 -1568 0
v -2976 -1568 0
v -2944 -1600 0
v -2976 -1600 0
v -2976 -1568 0
v -2944 -1568 0
v -2912 -1600 0
v -2944 -1600 0
v -2944 -1568 0
v -2912 -1568 0
v -2880 -1600 0
v -2912 -1600 0
v -2912 -1568 0
v -2880 -1568 0
v -384 -1600 0
v -416 -1600 0
v -416 -1568 0
v -384 -1568 0
v -352 -1600 0
v -384 -1600 0
v -384 -1568 0
v -352 -1568 0
v -320 -1600 0
v -352 -1600 0
v -352 -1568 0
v -320 -1568 0
v -3200 -1632 0
v -3232 -1632 0
v -3232 -1600 0
v -3200 -1600 0
v -3168 -1632 0
v -3200 -1632 0
v -3200 -1600 0
v -3168 -1600 0
v -3136 -1632 0
v -3168 -1632 0
v -3168 -1600 0
v -3136 -1600 0
v -3104 -1632 0
v -3136 -1632 0
v -3136 -1600 0
v -3104 -1600 0
v -3072 -1632 0
v -3104 -1632 0
v -3104 -1600 0
v -3072 -1600 0
v -3040 -1632 0
v -3072 -1632 0
v -3072 -1600 0
v -3040 -1600 0
v -3008 -1632 0
v -3040 -1632 0
v -3040 -1600 0
v -3008 -1600 0
v -2976 -1632 0
v -3008 -1632 0
v -3008 -1600 0
v -2976 -1600 0
v -2944 -1632 0
v -2976 -1632 0
v -2976 -1600 0
v -2944 -1600 0
v -2912 -1632 0
v -2944 -1632 0
v -2944 -1600 0
v -2912 -1600 0
v -2880 -1632 0
v -2912 -1632 0
v -2912 -1600 0
v -2880 -1600 0
v -2848 -1632 0
v -2880 -1632 0
v -2880 -1600 0
v -2848 -1600 0
v -384 -1632 0
v -416 -1632 0
v -416 -1600 0
v -384 -1600 0
v -352 -1632 0
v -384 -1632 0
v -384 -1600 0
v -352 -1600 0
v -320 -1632 0
v -352 -1632 0
v -352 -1600 0
v -320 -1600 0
v -3200 -1664 0
v -3232 -1664 0
v -3232 -1632 0
v -3200 -1632 0
v -3168 -1664 0
v -3200 -1664 0
v -3200 -1632 0
v -3168 -1632 0
v -3136 -1664 0
v -3168 -1664 0
v -3168 -1632 0
v -3136 -1632 0
v -3104 -1664 0
v -3136 -1664 0
v -3136 -1632 0
v -3104 -1632 0
v -3072 -1664 0
v -3104 -1664 0
v -3104 -1632 0
v -3072 -1632 0
v -3040 -1664 0
v -3072 -1664 0
v -3072 -1632 0
v -3040 -1632 0
v -3008 -1664 0
v -3040 -1664 0
v -3040 -1632 0
v -3008 -1632 0
v -2976 -1664 0
v -3008 -1664 0
v -3008 -1632 0
v -2976 -1632 0
v -2944 -1664 0
v -2976 -1664 0
v -2976 -1632 0
v -2944 -1632 0
v -2912 -1664 0
v -2944 -1664 0
v -2944 -1632 0
v -2912 -1632 0
v -2880 -1664 0
v -2912 -1664 0
v -2912 -1632 0
v -2880 -1632 0
v -2848 -1664 0
v -2880 -1664 0
v -2880 -1632 0
v -2848 -1632 0
v -384 -1664 0
v -416 -1664 0
v -416 -1632 0
v -384 -1632 0
v -352 -1664 0
v -384 -1664 0
v -384 -1632 0
v -352 -1632 0
v -320 -1664 0
v -352 -1664 0
v -352 -1632 0
v -320 -1632 0

# Texture cooridinates (Count = 20)
vt 0 0.75
vt 0.03125 0.75
vt 0.03125 0.78125
vt 0 0.78125
vt 0.09375 0.84375
vt 0.125 0.84375
vt 0.125 0.875
vt 0.09375 0.875
vt 0.0625 0.84375
vt 0.0625 0.875
vt 0.1875 0.75
vt 0.21875 0.75
vt 0.21875 0.78125
vt 0.1875 0.78125
vt 0.15625 0.84375
vt 0.15625 0.875
vt 0.09375 0.65625
vt 0.125 0.65625
vt 0.125 0.6875
vt 0.09375 0.6875

# Normal
vn 0 0 -1

# Mesh description
g map1_mesh_0002

# Faces
f 1/1/1 2/2/1 3/3/1 4/4/1
f 5/5/1 6/6/1 7/7/1 8/8/1
f 9/9/1 10/5/1 11/8/1 12/10/1
f 13/11/1 14/12/1 15/13/1 16/14/1
f 17/1/1 18/2/1 19/3/1 20/4/1
f 21/6/1 22/15/1 23/16/1 24/7/1
f 25/5/1 26/6/1 27/7/1 28/8/1
f 29/11/1 30/12/1 31/13/1 32/14/1
f 33/1/1 34/2/1 35/3/1 36/4/1
f 37/5/1 38/6/1 39/7/1 40/8/1
f 41/9/1 42/5/1 43/8/1 44/10/1
f 45/11/1 46/12/1 47/13/1 48/14/1
f 49/1/1 50/2/1 51/3/1 52/4/1
f 53/9/1 54/5/1 55/8/1 56/10/1
f 57/5/1 58/6/1 59/7/1 60/8/1
f 61/11/1 62/12/1 63/13/1 64/14/1
f 65/1/1 66/2/1 67/3/1 68/4/1
f 69/6/1 70/15/1 71/16/1 72/7/1
f 73/11/1 74/12/1 75/13/1 76/14/1
f 77/1/1 78/2/1 79/3/1 80/4/1
f 81/6/1 82/15/1 83/16/1 84/7/1
f 85/11/1 86/12/1 87/13/1 88/14/1
f 89/11/1 90/12/1 91/13/1 92/14/1
f 93/1/1 94/2/1 95/3/1 96/4/1
f 97/5/1 98/6/1 99/7/1 100/8/1
f 101/6/1 102/15/1 103/16/1 104/7/1
f 105/5/1 106/6/1 107/7/1 108/8/1
f 109/5/1 110/6/1 111/7/1 112/8/1
f 113/1/1 114/2/1 115/3/1 116/4/1
f 117/6/1 118/15/1 119/16/1 120/7/1
f 121/6/1 122/15/1 123/16/1 124/7/1
f 125/9/1 126/5/1 127/8/1 128/10/1
f 129/1/1 130/2/1 131/3/1 132/4/1
f 133/5/1 134/6/1 135/7/1 136/8/1
f 137/5/1 138/6/1 139/7/1 140/8/1
f 141/5/1 142/6/1 143/7/1 144/8/1
f 145/5/1 146/6/1 147/7/1 148/8/1
f 149/5/1 150/6/1 151/7/1 152/8/1
f 153/9/1 154/5/1 155/8/1 156/10/1
f 157/6/1 158/15/1 159/16/1 160/7/1
f 161/6/1 162/15/1 163/16/1 164/7/1
f 165/9/1 166/5/1 167/8/1 168/10/1
f 169/5/1 170/6/1 171/7/1 172/8/1
f 173/5/1 174/6/1 175/7/1 176/8/1
f 177/9/1 178/5/1 179/8/1 180/10/1
f 181/5/1 182/6/1 183/7/1 184/8/1
f 185/17/1 186/18/1 187/19/1 188/20/1
f 189/17/1 190/18/1 191/19/1 192/20/1
f 193/17/1 194/18/1 195/19/1 196/20/1
f 197/5/1 198/6/1 199/7/1 200/8/1
f 201/5/1 202/6/1 203/7/1 204/8/1
f 205/6/1 206/15/1 207/16/1 208/7/1
f 209/9/1 210/5/1 211/8/1 212/10/1
f 213/1/1 214/2/1 215/3/1 216/4/1
f 217/6/1 218/15/1 219/16/1 220/7/1
f 221/9/1 222/5/1 223/8/1 224/10/1
f 225/9/1 226/5/1 227/8/1 228/10/1
f 229/9/1 230/5/1 231/8/1 232/10/1
f 233/6/1 234/15/1 235/16/1 236/7/1
f 237/5/1 238/6/1 239/7/1 240/8/1
f 241/9/1 242/5/1 243/8/1 244/10/1
f 245/5/1 246/6/1 247/7/1 248/8/1
f 249/1/1 250/2/1 251/3/1 252/4/1
f 253/1/1 254/2/1 255/3/1 256/4/1
f 257/1/1 258/2/1 259/3/1 260/4/1
f 261/1/1 262/2/1 263/3/1 264/4/1
f 265/1/1 266/2/1 267/3/1 268/4/1
f 269/11/1 270/12/1 271/13/1 272/14/1
f 273/6/1 274/15/1 275/16/1 276/7/1
f 277/11/1 278/12/1 279/13/1 280/14/1
f 281/6/1 282/15/1 283/16/1 284/7/1
f 285/9/1 286/5/1 287/8/1 288/10/1
f 289/9/1 290/5/1 291/8/1 292/10/1
f 293/11/1 294/12/1 295/13/1 296/14/1
f 297/11/1 298/12/1 299/13/1 300/14/1
f 301/11/1 302/12/1 303/13/1 304/14/1
f 305/5/1 306/6/1 307/7/1 308/8/1
f 309/6/1 310/15/1 311/16/1 312/7/1
f 313/5/1 314/6/1 315/7/1 316/8/1
f 317/9/1 318/5/1 319/8/1 320/10/1
f 321/5/1 322/6/1 323/7/1 324/8/1
f 325/5/1 326/6/1 327/7/1 328/8/1
f 329/5/1 330/6/1 331/7/1 332/8/1
f 333/9/1 334/5/1 335/8/1 336/10/1
f 337/6/1 338/15/1 339/16/1 340/7/1
f 341/6/1 342/15/1 343/16/1 344/7/1
f 345/5/1 346/6/1 347/7/1 348/8/1
f 349/9/1 350/5/1 351/8/1 352/10/1
f 353/6/1 354/15/1 355/16/1 356/7/1
f 357/9/1 358/5/1 359/8/1 360/10/1
f 361/9/1 362/5/1 363/8/1 364/10/1
f 365/9/1 366/5/1 367/8/1 368/10/1
f 369/5/1 370/6/1 371/7/1 372/8/1
f 373/9/1 374/5/1 375/8/1 376/10/1
f 377/9/1 378/5/1 379/8/1 380/10/1
f 381/9/1 382/5/1 383/8/1 384/10/1
f 385/9/1 386/5/1 387/8/1 388/10/1
f 389/9/1 390/5/1 391/8/1 392/10/1
f 393/9/1 394/5/1 395/8/1 396/10/1
f 397/9/1 398/5/1 399/8/1 400/10/1
f 401/9/1 402/5/1 403/8/1 404/10/1
f 405/9/1 406/5/1 407/8/1 408/10/1
f 409/9/1 410/5/1 411/8/1 412/10/1
f 413/9/1 414/5/1 415/8/1 416/10/1
f 417/9/1 418/5/1 419/8/1 420/10/1
f 421/6/1 422/15/1 423/16/1 424/7/1
f 425/11/1 426/12/1 427/13/1 428/14/1
f 429/9/1 430/5/1 431/8/1 432/10/1
f 433/9/1 434/5/1 435/8/1 436/10/1
f 437/9/1 438/5/1 439/8/1 440/10/1
f 441/6/1 442/15/1 443/16/1 444/7/1
f 445/11/1 446/12/1 447/13/1 448/14/1
f 449/9/1 450/5/1 451/8/1 452/10/1
f 453/9/1 454/5/1 455/8/1 456/10/1
f 457/5/1 458/6/1 459/7/1 460/8/1
f 461/11/1 462/12/1 463/13/1 464/14/1
f 465/9/1 466/5/1 467/8/1 468/10/1
f 469/9/1 470/5/1 471/8/1 472/10/1
f 473/9/1 474/5/1 475/8/1 476/10/1
f 477/11/1 478/12/1 479/13/1 480/14/1
f 481/9/1 482/5/1 483/8/1 484/10/1
f 485/9/1 486/5/1 487/8/1 488/10/1
f 489/9/1 490/5/1 491/8/1 492/10/1
f 493/9/1 494/5/1 495/8/1 496/10/1
f 497/6/1 498/15/1 499/16/1 500/7/1
f 501/5/1 502/6/1 503/7/1 504/8/1
f 505/9/1 506/5/1 507/8/1 508/10/1
f 509/9/1 510/5/1 511/8/1 512/10/1
f 513/9/1 514/5/1 515/8/1 516/10/1
f 517/9/1 518/5/1 519/8/1 520/10/1
f 521/9/1 522/5/1 523/8/1 524/10/1
f 525/9/1 526/5/1 527/8/1 528/10/1
f 529/9/1 530/5/1 531/8/1 532/10/1
f 533/9/1 534/5/1 535/8/1 536/10/1
f 537/9/1 538/5/1 539/8/1 540/10/1
f 541/9/1 542/5/1 543/8/1 544/10/1
f 545/9/1 546/5/1 547/8/1 548/10/1
f 549/9/1 550/5/1 551/8/1 552/10/1
f 553/6/1 554/15/1 555/16/1 556/7/1
f 557/11/1 558/12/1 559/13/1 560/14/1
f 561/9/1 562/5/1 563/8/1 564/10/1
f 565/9/1 566/5/1 567/8/1 568/10/1
f 569/9/1 570/5/1 571/8/1 572/10/1
f 573/9/1 574/5/1 575/8/1 576/10/1
f 577/9/1 578/5/1 579/8/1 580/10/1
f 581/9/1 582/5/1 583/8/1 584/10/1
f 585/9/1 586/5/1 587/8/1 588/10/1
f 589/9/1 590/5/1 591/8/1 592/10/1
f 593/9/1 594/5/1 595/8/1 596/10/1
f 597/9/1 598/5/1 599/8/1 600/10/1
f 601/9/1 602/5/1 603/8/1 604/10/1
f 605/9/1 606/5/1 607/8/1 608/10/1
f 609/6/1 610/15/1 611/16/1 612/7/1
f 613/5/1 614/6/1 615/7/1 616/8/1
f 617/11/1 618/12/1 619/13/1 620/14/1
f 621/9/1 622/5/1 623/8/1 624/10/1
f 625/9/1 626/5/1 627/8/1 628/10/1
f 629/9/1 630/5/1 631/8/1 632/10/1
f 633/9/1 634/5/1 635/8/1 636/10/1
f 637/9/1 638/5/1 639/8/1 640/10/1
f 641/9/1 642/5/1 643/8/1 644/10/1
f 645/9/1 646/5/1 647/8/1 648/10/1
f 649/9/1 650/5/1 651/8/1 652/10/1
f 653/9/1 654/5/1 655/8/1 656/10/1
f 657/9/1 658/5/1 659/8/1 660/10/1
f 661/9/1 662/5/1 663/8/1 664/10/1
f 665/9/1 666/5/1 667/8/1 668/10/1
f 669/9/1 670/5/1 671/8/1 672/10/1
f 673/6/1 674/15/1 675/16/1 676/7/1
f 677/11/1 678/12/1 679/13/1 680/14/1

