# Tiled2Unity generated file. Do not modify by hand.
# Wavefront file for 'map1_mesh_0011.obj'

# Vertices (Count = 712)
v -672 -32 0
v -704 -32 0
v -704 0 0
v -672 0 0
v -640 -32 0
v -672 -32 0
v -672 0 0
v -640 0 0
v -672 -64 0
v -704 -64 0
v -704 -32 0
v -672 -32 0
v -640 -64 0
v -672 -64 0
v -672 -32 0
v -640 -32 0
v -512 -64 0
v -544 -64 0
v -544 -32 0
v -512 -32 0
v -480 -64 0
v -512 -64 0
v -512 -32 0
v -480 -32 0
v -448 -64 0
v -480 -64 0
v -480 -32 0
v -448 -32 0
v -416 -64 0
v -448 -64 0
v -448 -32 0
v -416 -32 0
v -128 -64 0
v -160 -64 0
v -160 -32 0
v -128 -32 0
v -96 -64 0
v -128 -64 0
v -128 -32 0
v -96 -32 0
v -64 -64 0
v -96 -64 0
v -96 -32 0
v -64 -32 0
v -32 -64 0
v -64 -64 0
v -64 -32 0
v -32 -32 0
v -960 -96 0
v -992 -96 0
v -992 -64 0
v -960 -64 0
v -928 -96 0
v -960 -96 0
v -960 -64 0
v -928 -64 0
v -672 -96 0
v -704 -96 0
v -704 -64 0
v -672 -64 0
v -640 -96 0
v -672 -96 0
v -672 -64 0
v -640 -64 0
v -512 -96 0
v -544 -96 0
v -544 -64 0
v -512 -64 0
v -480 -96 0
v -512 -96 0
v -512 -64 0
v -480 -64 0
v -448 -96 0
v -480 -96 0
v -480 -64 0
v -448 -64 0
v -416 -96 0
v -448 -96 0
v -448 -64 0
v -416 -64 0
v -128 -96 0
v -160 -96 0
v -160 -64 0
v -128 -64 0
v -96 -96 0
v -128 -96 0
v -128 -64 0
v -96 -64 0
v -64 -96 0
v -96 -96 0
v -96 -64 0
v -64 -64 0
v -32 -96 0
v -64 -96 0
v -64 -64 0
v -32 -64 0
v -960 -128 0
v -992 -128 0
v -992 -96 0
v -960 -96 0
v -928 -128 0
v -960 -128 0
v -960 -96 0
v -928 -96 0
v -512 -128 0
v -544 -128 0
v -544 -96 0
v -512 -96 0
v -480 -128 0
v -512 -128 0
v -512 -96 0
v -480 -96 0
v -448 -128 0
v -480 -128 0
v -480 -96 0
v -448 -96 0
v -416 -128 0
v -448 -128 0
v -448 -96 0
v -416 -96 0
v -128 -128 0
v -160 -128 0
v -160 -96 0
v -128 -96 0
v -96 -128 0
v -128 -128 0
v -128 -96 0
v -96 -96 0
v -64 -128 0
v -96 -128 0
v -96 -96 0
v -64 -96 0
v -32 -128 0
v -64 -128 0
v -64 -96 0
v -32 -96 0
v -960 -160 0
v -992 -160 0
v -992 -128 0
v -960 -128 0
v -928 -160 0
v -960 -160 0
v -960 -128 0
v -928 -128 0
v -768 -160 0
v -800 -160 0
v -800 -128 0
v -768 -128 0
v -736 -160 0
v -768 -160 0
v -768 -128 0
v -736 -128 0
v -512 -160 0
v -544 -160 0
v -544 -128 0
v -512 -128 0
v -480 -160 0
v -512 -160 0
v -512 -128 0
v -480 -128 0
v -448 -160 0
v -480 -160 0
v -480 -128 0
v -448 -128 0
v -416 -160 0
v -448 -160 0
v -448 -128 0
v -416 -128 0
v -128 -160 0
v -160 -160 0
v -160 -128 0
v -128 -128 0
v -96 -160 0
v -128 -160 0
v -128 -128 0
v -96 -128 0
v -64 -160 0
v -96 -160 0
v -96 -128 0
v -64 -128 0
v -32 -160 0
v -64 -160 0
v -64 -128 0
v -32 -128 0
v -768 -192 0
v -800 -192 0
v -800 -160 0
v -768 -160 0
v -736 -192 0
v -768 -192 0
v -768 -160 0
v -736 -160 0
v -512 -192 0
v -544 -192 0
v -544 -160 0
v -512 -160 0
v -480 -192 0
v -512 -192 0
v -512 -160 0
v -480 -160 0
v -448 -192 0
v -480 -192 0
v -480 -160 0
v -448 -160 0
v -416 -192 0
v -448 -192 0
v -448 -160 0
v -416 -160 0
v -768 -224 0
v -800 -224 0
v -800 -192 0
v -768 -192 0
v -736 -224 0
v -768 -224 0
v -768 -192 0
v -736 -192 0
v -128 -224 0
v -160 -224 0
v -160 -192 0
v -128 -192 0
v -96 -224 0
v -128 -224 0
v -128 -192 0
v -96 -192 0
v -128 -256 0
v -160 -256 0
v -160 -224 0
v -128 -224 0
v -96 -256 0
v -128 -256 0
v -128 -224 0
v -96 -224 0
v -704 -352 0
v -736 -352 0
v -736 -320 0
v -704 -320 0
v -672 -352 0
v -704 -352 0
v -704 -320 0
v -672 -320 0
v -704 -384 0
v -736 -384 0
v -736 -352 0
v -704 -352 0
v -672 -384 0
v -704 -384 0
v -704 -352 0
v -672 -352 0
v -704 -416 0
v -736 -416 0
v -736 -384 0
v -704 -384 0
v -672 -416 0
v -704 -416 0
v -704 -384 0
v -672 -384 0
v -224 -480 0
v -256 -480 0
v -256 -448 0
v -224 -448 0
v -192 -480 0
v -224 -480 0
v -224 -448 0
v -192 -448 0
v -160 -480 0
v -192 -480 0
v -192 -448 0
v -160 -448 0
v -128 -480 0
v -160 -480 0
v -160 -448 0
v -128 -448 0
v -640 -512 0
v -672 -512 0
v -672 -480 0
v -640 -480 0
v -608 -512 0
v -640 -512 0
v -640 -480 0
v -608 -480 0
v -576 -512 0
v -608 -512 0
v -608 -480 0
v -576 -480 0
v -544 -512 0
v -576 -512 0
v -576 -480 0
v -544 -480 0
v -224 -512 0
v -256 -512 0
v -256 -480 0
v -224 -480 0
v -192 -512 0
v -224 -512 0
v -224 -480 0
v -192 -480 0
v -160 -512 0
v -192 -512 0
v -192 -480 0
v -160 -480 0
v -128 -512 0
v -160 -512 0
v -160 -480 0
v -128 -480 0
v -640 -544 0
v -672 -544 0
v -672 -512 0
v -640 -512 0
v -608 -544 0
v -640 -544 0
v -640 -512 0
v -608 -512 0
v -576 -544 0
v -608 -544 0
v -608 -512 0
v -576 -512 0
v -544 -544 0
v -576 -544 0
v -576 -512 0
v -544 -512 0
v -224 -544 0
v -256 -544 0
v -256 -512 0
v -224 -512 0
v -192 -544 0
v -224 -544 0
v -224 -512 0
v -192 -512 0
v -160 -544 0
v -192 -544 0
v -192 -512 0
v -160 -512 0
v -128 -544 0
v -160 -544 0
v -160 -512 0
v -128 -512 0
v -640 -576 0
v -672 -576 0
v -672 -544 0
v -640 -544 0
v -608 -576 0
v -640 -576 0
v -640 -544 0
v -608 -544 0
v -576 -576 0
v -608 -576 0
v -608 -544 0
v -576 -544 0
v -544 -576 0
v -576 -576 0
v -576 -544 0
v -544 -544 0
v -224 -576 0
v -256 -576 0
v -256 -544 0
v -224 -544 0
v -192 -576 0
v -224 -576 0
v -224 -544 0
v -192 -544 0
v -160 -576 0
v -192 -576 0
v -192 -544 0
v -160 -544 0
v -128 -576 0
v -160 -576 0
v -160 -544 0
v -128 -544 0
v -640 -608 0
v -672 -608 0
v -672 -576 0
v -640 -576 0
v -608 -608 0
v -640 -608 0
v -640 -576 0
v -608 -576 0
v -576 -608 0
v -608 -608 0
v -608 -576 0
v -576 -576 0
v -544 -608 0
v -576 -608 0
v -576 -576 0
v -544 -576 0
v -224 -608 0
v -256 -608 0
v -256 -576 0
v -224 -576 0
v -192 -608 0
v -224 -608 0
v -224 -576 0
v -192 -576 0
v -160 -608 0
v -192 -608 0
v -192 -576 0
v -160 -576 0
v -128 -608 0
v -160 -608 0
v -160 -576 0
v -128 -576 0
v -640 -640 0
v -672 -640 0
v -672 -608 0
v -640 -608 0
v -608 -640 0
v -640 -640 0
v -640 -608 0
v -608 -608 0
v -576 -640 0
v -608 -640 0
v -608 -608 0
v -576 -608 0
v -544 -640 0
v -576 -640 0
v -576 -608 0
v -544 -608 0
v -768 -672 0
v -800 -672 0
v -800 -640 0
v -768 -640 0
v -736 -672 0
v -768 -672 0
v -768 -640 0
v -736 -640 0
v -768 -704 0
v -800 -704 0
v -800 -672 0
v -768 -672 0
v -736 -704 0
v -768 -704 0
v -768 -672 0
v -736 -672 0
v -768 -736 0
v -800 -736 0
v -800 -704 0
v -768 -704 0
v -736 -736 0
v -768 -736 0
v -768 -704 0
v -736 -704 0
v -640 -800 0
v -672 -800 0
v -672 -768 0
v -640 -768 0
v -608 -800 0
v -640 -800 0
v -640 -768 0
v -608 -768 0
v -640 -832 0
v -672 -832 0
v -672 -800 0
v -640 -800 0
v -608 -832 0
v -640 -832 0
v -640 -800 0
v -608 -800 0
v -832 -864 0
v -864 -864 0
v -864 -832 0
v -832 -832 0
v -800 -864 0
v -832 -864 0
v -832 -832 0
v -800 -832 0
v -640 -864 0
v -672 -864 0
v -672 -832 0
v -640 -832 0
v -608 -864 0
v -640 -864 0
v -640 -832 0
v -608 -832 0
v -64 -864 0
v -96 -864 0
v -96 -832 0
v -64 -832 0
v -32 -864 0
v -64 -864 0
v -64 -832 0
v -32 -832 0
v -832 -896 0
v -864 -896 0
v -864 -864 0
v -832 -864 0
v -800 -896 0
v -832 -896 0
v -832 -864 0
v -800 -864 0
v -64 -896 0
v -96 -896 0
v -96 -864 0
v -64 -864 0
v -32 -896 0
v -64 -896 0
v -64 -864 0
v -32 -864 0
v -832 -928 0
v -864 -928 0
v -864 -896 0
v -832 -896 0
v -800 -928 0
v -832 -928 0
v -832 -896 0
v -800 -896 0
v -128 -992 0
v -160 -992 0
v -160 -960 0
v -128 -960 0
v -96 -992 0
v -128 -992 0
v -128 -960 0
v -96 -960 0
v -128 -1024 0
v -160 -1024 0
v -160 -992 0
v -128 -992 0
v -96 -1024 0
v -128 -1024 0
v -128 -992 0
v -96 -992 0
v -256 -1088 0
v -288 -1088 0
v -288 -1056 0
v -256 -1056 0
v -224 -1088 0
v -256 -1088 0
v -256 -1056 0
v -224 -1056 0
v -256 -1120 0
v -288 -1120 0
v -288 -1088 0
v -256 -1088 0
v -224 -1120 0
v -256 -1120 0
v -256 -1088 0
v -224 -1088 0
v -288 -1152 0
v -320 -1152 0
v -320 -1120 0
v -288 -1120 0
v -256 -1152 0
v -288 -1152 0
v -288 -1120 0
v -256 -1120 0
v -224 -1152 0
v -256 -1152 0
v -256 -1120 0
v -224 -1120 0
v -192 -1152 0
v -224 -1152 0
v -224 -1120 0
v -192 -1120 0
v -96 -1152 0
v -128 -1152 0
v -128 -1120 0
v -96 -1120 0
v -64 -1152 0
v -96 -1152 0
v -96 -1120 0
v -64 -1120 0
v -288 -1184 0
v -320 -1184 0
v -320 -1152 0
v -288 -1152 0
v -256 -1184 0
v -288 -1184 0
v -288 -1152 0
v -256 -1152 0
v -224 -1184 0
v -256 -1184 0
v -256 -1152 0
v -224 -1152 0
v -192 -1184 0
v -224 -1184 0
v -224 -1152 0
v -192 -1152 0
v -96 -1184 0
v -128 -1184 0
v -128 -1152 0
v -96 -1152 0
v -64 -1184 0
v -96 -1184 0
v -96 -1152 0
v -64 -1152 0
v -288 -1216 0
v -320 -1216 0
v -320 -1184 0
v -288 -1184 0
v -256 -1216 0
v -288 -1216 0
v -288 -1184 0
v -256 -1184 0
v -224 -1216 0
v -256 -1216 0
v -256 -1184 0
v -224 -1184 0
v -192 -1216 0
v -224 -1216 0
v -224 -1184 0
v -192 -1184 0
v -288 -1248 0
v -320 -1248 0
v -320 -1216 0
v -288 -1216 0
v -256 -1248 0
v -288 -1248 0
v -288 -1216 0
v -256 -1216 0
v -224 -1248 0
v -256 -1248 0
v -256 -1216 0
v -224 -1216 0
v -192 -1248 0
v -224 -1248 0
v -224 -1216 0
v -192 -1216 0
v -160 -1248 0
v -192 -1248 0
v -192 -1216 0
v -160 -1216 0
v -128 -1248 0
v -160 -1248 0
v -160 -1216 0
v -128 -1216 0
v -288 -1280 0
v -320 -1280 0
v -320 -1248 0
v -288 -1248 0
v -256 -1280 0
v -288 -1280 0
v -288 -1248 0
v -256 -1248 0
v -224 -1280 0
v -256 -1280 0
v -256 -1248 0
v -224 -1248 0
v -192 -1280 0
v -224 -1280 0
v -224 -1248 0
v -192 -1248 0
v -160 -1280 0
v -192 -1280 0
v -192 -1248 0
v -160 -1248 0
v -128 -1280 0
v -160 -1280 0
v -160 -1248 0
v -128 -1248 0
v -96 -1312 0
v -128 -1312 0
v -128 -1280 0
v -96 -1280 0
v -64 -1312 0
v -96 -1312 0
v -96 -1280 0
v -64 -1280 0
v -96 -1344 0
v -128 -1344 0
v -128 -1312 0
v -96 -1312 0
v -64 -1344 0
v -96 -1344 0
v -96 -1312 0
v -64 -1312 0
v -128 -1440 0
v -160 -1440 0
v -160 -1408 0
v -128 -1408 0
v -96 -1440 0
v -128 -1440 0
v -128 -1408 0
v -96 -1408 0
v -192 -1472 0
v -224 -1472 0
v -224 -1440 0
v -192 -1440 0
v -160 -1472 0
v -192 -1472 0
v -192 -1440 0
v -160 -1440 0
v -128 -1472 0
v -160 -1472 0
v -160 -1440 0
v -128 -1440 0
v -96 -1472 0
v -128 -1472 0
v -128 -1440 0
v -96 -1440 0
v -192 -1504 0
v -224 -1504 0
v -224 -1472 0
v -192 -1472 0
v -160 -1504 0
v -192 -1504 0
v -192 -1472 0
v -160 -1472 0
v -160 -1568 0
v -192 -1568 0
v -192 -1536 0
v -160 -1536 0
v -128 -1568 0
v -160 -1568 0
v -160 -1536 0
v -128 -1536 0
v -160 -1600 0
v -192 -1600 0
v -192 -1568 0
v -160 -1568 0
v -128 -1600 0
v -160 -1600 0
v -160 -1568 0
v -128 -1568 0

# Texture cooridinates (Count = 74)
vt 0.9375 0.25
vt 1 0.25
vt 1 0.3125
vt 0.9375 0.3125
vt 0.875 0.25
vt 0.875 0.3125
vt 0.9375 0.1875
vt 1 0.1875
vt 0.875 0.1875
vt 0.9375 0.9375
vt 1 0.9375
vt 1 1
vt 0.9375 1
vt 0.875 0.9375
vt 0.875 1
vt 0.8125 0.9375
vt 0.8125 1
vt 0.75 0.9375
vt 0.75 1
vt 0.5625 0.3125
vt 0.625 0.3125
vt 0.625 0.375
vt 0.5625 0.375
vt 0.5 0.3125
vt 0.5 0.375
vt 0.4375 0.3125
vt 0.4375 0.375
vt 0.375 0.3125
vt 0.375 0.375
vt 0.9375 0.125
vt 1 0.125
vt 0.875 0.125
vt 0.9375 0.875
vt 1 0.875
vt 0.875 0.875
vt 0.8125 0.875
vt 0.75 0.875
vt 0.5625 0.25
vt 0.625 0.25
vt 0.5 0.25
vt 0.4375 0.25
vt 0.375 0.25
vt 0.9375 0.8125
vt 1 0.8125
vt 0.875 0.8125
vt 0.8125 0.8125
vt 0.75 0.8125
vt 0.5625 0.1875
vt 0.625 0.1875
vt 0.5 0.1875
vt 0.4375 0.1875
vt 0.375 0.1875
vt 0.9375 0.75
vt 1 0.75
vt 0.875 0.75
vt 0.8125 0.75
vt 0.75 0.75
vt 0.5625 0.125
vt 0.625 0.125
vt 0.5 0.125
vt 0.4375 0.125
vt 0.375 0.125
vt 0.9375 0.6875
vt 1 0.6875
vt 0.875 0.6875
vt 0.8125 0.6875
vt 0.75 0.6875
vt 0.8125 0.3125
vt 0.875 0.375
vt 0.8125 0.375
vt 0.75 0.3125
vt 0.75 0.375
vt 0.8125 0.25
vt 0.75 0.25

# Normal
vn 0 0 -1

# Mesh description
g map1_mesh_0011

# Faces
f 1/1/1 2/2/1 3/3/1 4/4/1
f 5/5/1 6/1/1 7/4/1 8/6/1
f 9/7/1 10/8/1 11/2/1 12/1/1
f 13/9/1 14/7/1 15/1/1 16/5/1
f 17/10/1 18/11/1 19/12/1 20/13/1
f 21/14/1 22/10/1 23/13/1 24/15/1
f 25/16/1 26/14/1 27/15/1 28/17/1
f 29/18/1 30/16/1 31/17/1 32/19/1
f 33/20/1 34/21/1 35/22/1 36/23/1
f 37/24/1 38/20/1 39/23/1 40/25/1
f 41/26/1 42/24/1 43/25/1 44/27/1
f 45/28/1 46/26/1 47/27/1 48/29/1
f 49/1/1 50/2/1 51/3/1 52/4/1
f 53/5/1 54/1/1 55/4/1 56/6/1
f 57/30/1 58/31/1 59/8/1 60/7/1
f 61/32/1 62/30/1 63/7/1 64/9/1
f 65/33/1 66/34/1 67/11/1 68/10/1
f 69/35/1 70/33/1 71/10/1 72/14/1
f 73/36/1 74/35/1 75/14/1 76/16/1
f 77/37/1 78/36/1 79/16/1 80/18/1
f 81/38/1 82/39/1 83/21/1 84/20/1
f 85/40/1 86/38/1 87/20/1 88/24/1
f 89/41/1 90/40/1 91/24/1 92/26/1
f 93/42/1 94/41/1 95/26/1 96/28/1
f 97/7/1 98/8/1 99/2/1 100/1/1
f 101/9/1 102/7/1 103/1/1 104/5/1
f 105/43/1 106/44/1 107/34/1 108/33/1
f 109/45/1 110/43/1 111/33/1 112/35/1
f 113/46/1 114/45/1 115/35/1 116/36/1
f 117/47/1 118/46/1 119/36/1 120/37/1
f 121/48/1 122/49/1 123/39/1 124/38/1
f 125/50/1 126/48/1 127/38/1 128/40/1
f 129/51/1 130/50/1 131/40/1 132/41/1
f 133/52/1 134/51/1 135/41/1 136/42/1
f 137/30/1 138/31/1 139/8/1 140/7/1
f 141/32/1 142/30/1 143/7/1 144/9/1
f 145/1/1 146/2/1 147/3/1 148/4/1
f 149/5/1 150/1/1 151/4/1 152/6/1
f 153/53/1 154/54/1 155/44/1 156/43/1
f 157/55/1 158/53/1 159/43/1 160/45/1
f 161/56/1 162/55/1 163/45/1 164/46/1
f 165/57/1 166/56/1 167/46/1 168/47/1
f 169/58/1 170/59/1 171/49/1 172/48/1
f 173/60/1 174/58/1 175/48/1 176/50/1
f 177/61/1 178/60/1 179/50/1 180/51/1
f 181/62/1 182/61/1 183/51/1 184/52/1
f 185/7/1 186/8/1 187/2/1 188/1/1
f 189/9/1 190/7/1 191/1/1 192/5/1
f 193/63/1 194/64/1 195/54/1 196/53/1
f 197/65/1 198/63/1 199/53/1 200/55/1
f 201/66/1 202/65/1 203/55/1 204/56/1
f 205/67/1 206/66/1 207/56/1 208/57/1
f 209/30/1 210/31/1 211/8/1 212/7/1
f 213/32/1 214/30/1 215/7/1 216/9/1
f 217/68/1 218/6/1 219/69/1 220/70/1
f 221/71/1 222/68/1 223/70/1 224/72/1
f 225/73/1 226/5/1 227/6/1 228/68/1
f 229/74/1 230/73/1 231/68/1 232/71/1
f 233/1/1 234/2/1 235/3/1 236/4/1
f 237/5/1 238/1/1 239/4/1 240/6/1
f 241/7/1 242/8/1 243/2/1 244/1/1
f 245/9/1 246/7/1 247/1/1 248/5/1
f 249/30/1 250/31/1 251/8/1 252/7/1
f 253/32/1 254/30/1 255/7/1 256/9/1
f 257/10/1 258/11/1 259/12/1 260/13/1
f 261/14/1 262/10/1 263/13/1 264/15/1
f 265/16/1 266/14/1 267/15/1 268/17/1
f 269/18/1 270/16/1 271/17/1 272/19/1
f 273/10/1 274/11/1 275/12/1 276/13/1
f 277/14/1 278/10/1 279/13/1 280/15/1
f 281/16/1 282/14/1 283/15/1 284/17/1
f 285/18/1 286/16/1 287/17/1 288/19/1
f 289/33/1 290/34/1 291/11/1 292/10/1
f 293/35/1 294/33/1 295/10/1 296/14/1
f 297/36/1 298/35/1 299/14/1 300/16/1
f 301/37/1 302/36/1 303/16/1 304/18/1
f 305/33/1 306/34/1 307/11/1 308/10/1
f 309/35/1 310/33/1 311/10/1 312/14/1
f 313/36/1 314/35/1 315/14/1 316/16/1
f 317/37/1 318/36/1 319/16/1 320/18/1
f 321/43/1 322/44/1 323/34/1 324/33/1
f 325/45/1 326/43/1 327/33/1 328/35/1
f 329/46/1 330/45/1 331/35/1 332/36/1
f 333/47/1 334/46/1 335/36/1 336/37/1
f 337/43/1 338/44/1 339/34/1 340/33/1
f 341/45/1 342/43/1 343/33/1 344/35/1
f 345/46/1 346/45/1 347/35/1 348/36/1
f 349/47/1 350/46/1 351/36/1 352/37/1
f 353/53/1 354/54/1 355/44/1 356/43/1
f 357/55/1 358/53/1 359/43/1 360/45/1
f 361/56/1 362/55/1 363/45/1 364/46/1
f 365/57/1 366/56/1 367/46/1 368/47/1
f 369/53/1 370/54/1 371/44/1 372/43/1
f 373/55/1 374/53/1 375/43/1 376/45/1
f 377/56/1 378/55/1 379/45/1 380/46/1
f 381/57/1 382/56/1 383/46/1 384/47/1
f 385/63/1 386/64/1 387/54/1 388/53/1
f 389/65/1 390/63/1 391/53/1 392/55/1
f 393/66/1 394/65/1 395/55/1 396/56/1
f 397/67/1 398/66/1 399/56/1 400/57/1
f 401/63/1 402/64/1 403/54/1 404/53/1
f 405/65/1 406/63/1 407/53/1 408/55/1
f 409/66/1 410/65/1 411/55/1 412/56/1
f 413/67/1 414/66/1 415/56/1 416/57/1
f 417/1/1 418/2/1 419/3/1 420/4/1
f 421/5/1 422/1/1 423/4/1 424/6/1
f 425/7/1 426/8/1 427/2/1 428/1/1
f 429/9/1 430/7/1 431/1/1 432/5/1
f 433/30/1 434/31/1 435/8/1 436/7/1
f 437/32/1 438/30/1 439/7/1 440/9/1
f 441/1/1 442/2/1 443/3/1 444/4/1
f 445/5/1 446/1/1 447/4/1 448/6/1
f 449/7/1 450/8/1 451/2/1 452/1/1
f 453/9/1 454/7/1 455/1/1 456/5/1
f 457/1/1 458/2/1 459/3/1 460/4/1
f 461/5/1 462/1/1 463/4/1 464/6/1
f 465/30/1 466/31/1 467/8/1 468/7/1
f 469/32/1 470/30/1 471/7/1 472/9/1
f 473/68/1 474/6/1 475/69/1 476/70/1
f 477/71/1 478/68/1 479/70/1 480/72/1
f 481/7/1 482/8/1 483/2/1 484/1/1
f 485/9/1 486/7/1 487/1/1 488/5/1
f 489/73/1 490/5/1 491/6/1 492/68/1
f 493/74/1 494/73/1 495/68/1 496/71/1
f 497/30/1 498/31/1 499/8/1 500/7/1
f 501/32/1 502/30/1 503/7/1 504/9/1
f 505/68/1 506/6/1 507/69/1 508/70/1
f 509/71/1 510/68/1 511/70/1 512/72/1
f 513/73/1 514/5/1 515/6/1 516/68/1
f 517/74/1 518/73/1 519/68/1 520/71/1
f 521/68/1 522/6/1 523/69/1 524/70/1
f 525/71/1 526/68/1 527/70/1 528/72/1
f 529/73/1 530/5/1 531/6/1 532/68/1
f 533/74/1 534/73/1 535/68/1 536/71/1
f 537/10/1 538/11/1 539/12/1 540/13/1
f 541/14/1 542/10/1 543/13/1 544/15/1
f 545/16/1 546/14/1 547/15/1 548/17/1
f 549/18/1 550/16/1 551/17/1 552/19/1
f 553/68/1 554/6/1 555/69/1 556/70/1
f 557/71/1 558/68/1 559/70/1 560/72/1
f 561/33/1 562/34/1 563/11/1 564/10/1
f 565/35/1 566/33/1 567/10/1 568/14/1
f 569/36/1 570/35/1 571/14/1 572/16/1
f 573/37/1 574/36/1 575/16/1 576/18/1
f 577/73/1 578/5/1 579/6/1 580/68/1
f 581/74/1 582/73/1 583/68/1 584/71/1
f 585/43/1 586/44/1 587/34/1 588/33/1
f 589/45/1 590/43/1 591/33/1 592/35/1
f 593/46/1 594/45/1 595/35/1 596/36/1
f 597/47/1 598/46/1 599/36/1 600/37/1
f 601/53/1 602/54/1 603/44/1 604/43/1
f 605/55/1 606/53/1 607/43/1 608/45/1
f 609/56/1 610/55/1 611/45/1 612/46/1
f 613/57/1 614/56/1 615/46/1 616/47/1
f 617/68/1 618/6/1 619/69/1 620/70/1
f 621/71/1 622/68/1 623/70/1 624/72/1
f 625/63/1 626/64/1 627/54/1 628/53/1
f 629/65/1 630/63/1 631/53/1 632/55/1
f 633/66/1 634/65/1 635/55/1 636/56/1
f 637/67/1 638/66/1 639/56/1 640/57/1
f 641/73/1 642/5/1 643/6/1 644/68/1
f 645/74/1 646/73/1 647/68/1 648/71/1
f 649/68/1 650/6/1 651/69/1 652/70/1
f 653/71/1 654/68/1 655/70/1 656/72/1
f 657/73/1 658/5/1 659/6/1 660/68/1
f 661/74/1 662/73/1 663/68/1 664/71/1
f 665/68/1 666/6/1 667/69/1 668/70/1
f 669/71/1 670/68/1 671/70/1 672/72/1
f 673/68/1 674/6/1 675/69/1 676/70/1
f 677/71/1 678/68/1 679/70/1 680/72/1
f 681/73/1 682/5/1 683/6/1 684/68/1
f 685/74/1 686/73/1 687/68/1 688/71/1
f 689/73/1 690/5/1 691/6/1 692/68/1
f 693/74/1 694/73/1 695/68/1 696/71/1
f 697/68/1 698/6/1 699/69/1 700/70/1
f 701/71/1 702/68/1 703/70/1 704/72/1
f 705/73/1 706/5/1 707/6/1 708/68/1
f 709/74/1 710/73/1 711/68/1 712/71/1

