# Tiled2Unity generated file. Do not modify by hand.
# Wavefront file for 'map1_mesh_0013.obj'

# Vertices (Count = 924)
v -1248 -64 0
v -1280 -64 0
v -1280 -32 0
v -1248 -32 0
v -1216 -64 0
v -1248 -64 0
v -1248 -32 0
v -1216 -32 0
v -1184 -64 0
v -1216 -64 0
v -1216 -32 0
v -1184 -32 0
v -1152 -64 0
v -1184 -64 0
v -1184 -32 0
v -1152 -32 0
v -1280 -96 0
v -1312 -96 0
v -1312 -64 0
v -1280 -64 0
v -1248 -96 0
v -1280 -96 0
v -1280 -64 0
v -1248 -64 0
v -1216 -96 0
v -1248 -96 0
v -1248 -64 0
v -1216 -64 0
v -1184 -96 0
v -1216 -96 0
v -1216 -64 0
v -1184 -64 0
v -1152 -96 0
v -1184 -96 0
v -1184 -64 0
v -1152 -64 0
v -1568 -128 0
v -1600 -128 0
v -1600 -96 0
v -1568 -96 0
v -1536 -128 0
v -1568 -128 0
v -1568 -96 0
v -1536 -96 0
v -1504 -128 0
v -1536 -128 0
v -1536 -96 0
v -1504 -96 0
v -1472 -128 0
v -1504 -128 0
v -1504 -96 0
v -1472 -96 0
v -1280 -128 0
v -1312 -128 0
v -1312 -96 0
v -1280 -96 0
v -1248 -128 0
v -1280 -128 0
v -1280 -96 0
v -1248 -96 0
v -1216 -128 0
v -1248 -128 0
v -1248 -96 0
v -1216 -96 0
v -1184 -128 0
v -1216 -128 0
v -1216 -96 0
v -1184 -96 0
v -1152 -128 0
v -1184 -128 0
v -1184 -96 0
v -1152 -96 0
v -1600 -160 0
v -1632 -160 0
v -1632 -128 0
v -1600 -128 0
v -1568 -160 0
v -1600 -160 0
v -1600 -128 0
v -1568 -128 0
v -1536 -160 0
v -1568 -160 0
v -1568 -128 0
v -1536 -128 0
v -1504 -160 0
v -1536 -160 0
v -1536 -128 0
v -1504 -128 0
v -1472 -160 0
v -1504 -160 0
v -1504 -128 0
v -1472 -128 0
v -1280 -160 0
v -1312 -160 0
v -1312 -128 0
v -1280 -128 0
v -1248 -160 0
v -1280 -160 0
v -1280 -128 0
v -1248 -128 0
v -1216 -160 0
v -1248 -160 0
v -1248 -128 0
v -1216 -128 0
v -1184 -160 0
v -1216 -160 0
v -1216 -128 0
v -1184 -128 0
v -1152 -160 0
v -1184 -160 0
v -1184 -128 0
v -1152 -128 0
v -1600 -192 0
v -1632 -192 0
v -1632 -160 0
v -1600 -160 0
v -1568 -192 0
v -1600 -192 0
v -1600 -160 0
v -1568 -160 0
v -1536 -192 0
v -1568 -192 0
v -1568 -160 0
v -1536 -160 0
v -1504 -192 0
v -1536 -192 0
v -1536 -160 0
v -1504 -160 0
v -1472 -192 0
v -1504 -192 0
v -1504 -160 0
v -1472 -160 0
v -1280 -192 0
v -1312 -192 0
v -1312 -160 0
v -1280 -160 0
v -1248 -192 0
v -1280 -192 0
v -1280 -160 0
v -1248 -160 0
v -1216 -192 0
v -1248 -192 0
v -1248 -160 0
v -1216 -160 0
v -1184 -192 0
v -1216 -192 0
v -1216 -160 0
v -1184 -160 0
v -1152 -192 0
v -1184 -192 0
v -1184 -160 0
v -1152 -160 0
v -1600 -224 0
v -1632 -224 0
v -1632 -192 0
v -1600 -192 0
v -1568 -224 0
v -1600 -224 0
v -1600 -192 0
v -1568 -192 0
v -1536 -224 0
v -1568 -224 0
v -1568 -192 0
v -1536 -192 0
v -1504 -224 0
v -1536 -224 0
v -1536 -192 0
v -1504 -192 0
v -1472 -224 0
v -1504 -224 0
v -1504 -192 0
v -1472 -192 0
v -960 -224 0
v -992 -224 0
v -992 -192 0
v -960 -192 0
v -928 -224 0
v -960 -224 0
v -960 -192 0
v -928 -192 0
v -896 -224 0
v -928 -224 0
v -928 -192 0
v -896 -192 0
v -864 -224 0
v -896 -224 0
v -896 -192 0
v -864 -192 0
v -1600 -256 0
v -1632 -256 0
v -1632 -224 0
v -1600 -224 0
v -1568 -256 0
v -1600 -256 0
v -1600 -224 0
v -1568 -224 0
v -1536 -256 0
v -1568 -256 0
v -1568 -224 0
v -1536 -224 0
v -1504 -256 0
v -1536 -256 0
v -1536 -224 0
v -1504 -224 0
v -1472 -256 0
v -1504 -256 0
v -1504 -224 0
v -1472 -224 0
v -992 -256 0
v -1024 -256 0
v -1024 -224 0
v -992 -224 0
v -960 -256 0
v -992 -256 0
v -992 -224 0
v -960 -224 0
v -928 -256 0
v -960 -256 0
v -960 -224 0
v -928 -224 0
v -896 -256 0
v -928 -256 0
v -928 -224 0
v -896 -224 0
v -864 -256 0
v -896 -256 0
v -896 -224 0
v -864 -224 0
v -1728 -288 0
v -1760 -288 0
v -1760 -256 0
v -1728 -256 0
v -1696 -288 0
v -1728 -288 0
v -1728 -256 0
v -1696 -256 0
v -1664 -288 0
v -1696 -288 0
v -1696 -256 0
v -1664 -256 0
v -1632 -288 0
v -1664 -288 0
v -1664 -256 0
v -1632 -256 0
v -992 -288 0
v -1024 -288 0
v -1024 -256 0
v -992 -256 0
v -960 -288 0
v -992 -288 0
v -992 -256 0
v -960 -256 0
v -928 -288 0
v -960 -288 0
v -960 -256 0
v -928 -256 0
v -896 -288 0
v -928 -288 0
v -928 -256 0
v -896 -256 0
v -864 -288 0
v -896 -288 0
v -896 -256 0
v -864 -256 0
v -1760 -320 0
v -1792 -320 0
v -1792 -288 0
v -1760 -288 0
v -1728 -320 0
v -1760 -320 0
v -1760 -288 0
v -1728 -288 0
v -1696 -320 0
v -1728 -320 0
v -1728 -288 0
v -1696 -288 0
v -1664 -320 0
v -1696 -320 0
v -1696 -288 0
v -1664 -288 0
v -1632 -320 0
v -1664 -320 0
v -1664 -288 0
v -1632 -288 0
v -992 -320 0
v -1024 -320 0
v -1024 -288 0
v -992 -288 0
v -960 -320 0
v -992 -320 0
v -992 -288 0
v -960 -288 0
v -928 -320 0
v -960 -320 0
v -960 -288 0
v -928 -288 0
v -896 -320 0
v -928 -320 0
v -928 -288 0
v -896 -288 0
v -864 -320 0
v -896 -320 0
v -896 -288 0
v -864 -288 0
v -1760 -352 0
v -1792 -352 0
v -1792 -320 0
v -1760 -320 0
v -1728 -352 0
v -1760 -352 0
v -1760 -320 0
v -1728 -320 0
v -1696 -352 0
v -1728 -352 0
v -1728 -320 0
v -1696 -320 0
v -1664 -352 0
v -1696 -352 0
v -1696 -320 0
v -1664 -320 0
v -1632 -352 0
v -1664 -352 0
v -1664 -320 0
v -1632 -320 0
v -992 -352 0
v -1024 -352 0
v -1024 -320 0
v -992 -320 0
v -960 -352 0
v -992 -352 0
v -992 -320 0
v -960 -320 0
v -928 -352 0
v -960 -352 0
v -960 -320 0
v -928 -320 0
v -896 -352 0
v -928 -352 0
v -928 -320 0
v -896 -320 0
v -864 -352 0
v -896 -352 0
v -896 -320 0
v -864 -320 0
v -1760 -384 0
v -1792 -384 0
v -1792 -352 0
v -1760 -352 0
v -1728 -384 0
v -1760 -384 0
v -1760 -352 0
v -1728 -352 0
v -1696 -384 0
v -1728 -384 0
v -1728 -352 0
v -1696 -352 0
v -1664 -384 0
v -1696 -384 0
v -1696 -352 0
v -1664 -352 0
v -1632 -384 0
v -1664 -384 0
v -1664 -352 0
v -1632 -352 0
v -1760 -416 0
v -1792 -416 0
v -1792 -384 0
v -1760 -384 0
v -1728 -416 0
v -1760 -416 0
v -1760 -384 0
v -1728 -384 0
v -1696 -416 0
v -1728 -416 0
v -1728 -384 0
v -1696 -384 0
v -1664 -416 0
v -1696 -416 0
v -1696 -384 0
v -1664 -384 0
v -1632 -416 0
v -1664 -416 0
v -1664 -384 0
v -1632 -384 0
v -928 -448 0
v -960 -448 0
v -960 -416 0
v -928 -416 0
v -896 -448 0
v -928 -448 0
v -928 -416 0
v -896 -416 0
v -864 -448 0
v -896 -448 0
v -896 -416 0
v -864 -416 0
v -832 -448 0
v -864 -448 0
v -864 -416 0
v -832 -416 0
v -960 -480 0
v -992 -480 0
v -992 -448 0
v -960 -448 0
v -928 -480 0
v -960 -480 0
v -960 -448 0
v -928 -448 0
v -896 -480 0
v -928 -480 0
v -928 -448 0
v -896 -448 0
v -864 -480 0
v -896 -480 0
v -896 -448 0
v -864 -448 0
v -832 -480 0
v -864 -480 0
v -864 -448 0
v -832 -448 0
v -960 -512 0
v -992 -512 0
v -992 -480 0
v -960 -480 0
v -928 -512 0
v -960 -512 0
v -960 -480 0
v -928 -480 0
v -896 -512 0
v -928 -512 0
v -928 -480 0
v -896 -480 0
v -864 -512 0
v -896 -512 0
v -896 -480 0
v -864 -480 0
v -832 -512 0
v -864 -512 0
v -864 -480 0
v -832 -480 0
v -960 -544 0
v -992 -544 0
v -992 -512 0
v -960 -512 0
v -928 -544 0
v -960 -544 0
v -960 -512 0
v -928 -512 0
v -896 -544 0
v -928 -544 0
v -928 -512 0
v -896 -512 0
v -864 -544 0
v -896 -544 0
v -896 -512 0
v -864 -512 0
v -832 -544 0
v -864 -544 0
v -864 -512 0
v -832 -512 0
v -960 -576 0
v -992 -576 0
v -992 -544 0
v -960 -544 0
v -928 -576 0
v -960 -576 0
v -960 -544 0
v -928 -544 0
v -896 -576 0
v -928 -576 0
v -928 -544 0
v -896 -544 0
v -864 -576 0
v -896 -576 0
v -896 -544 0
v -864 -544 0
v -832 -576 0
v -864 -576 0
v -864 -544 0
v -832 -544 0
v -1760 -672 0
v -1792 -672 0
v -1792 -640 0
v -1760 -640 0
v -1952 -704 0
v -1984 -704 0
v -1984 -672 0
v -1952 -672 0
v -1792 -704 0
v -1824 -704 0
v -1824 -672 0
v -1792 -672 0
v -1728 -704 0
v -1760 -704 0
v -1760 -672 0
v -1728 -672 0
v -1088 -704 0
v -1120 -704 0
v -1120 -672 0
v -1088 -672 0
v -1056 -704 0
v -1088 -704 0
v -1088 -672 0
v -1056 -672 0
v -1024 -704 0
v -1056 -704 0
v -1056 -672 0
v -1024 -672 0
v -992 -704 0
v -1024 -704 0
v -1024 -672 0
v -992 -672 0
v -1120 -736 0
v -1152 -736 0
v -1152 -704 0
v -1120 -704 0
v -1088 -736 0
v -1120 -736 0
v -1120 -704 0
v -1088 -704 0
v -1056 -736 0
v -1088 -736 0
v -1088 -704 0
v -1056 -704 0
v -1024 -736 0
v -1056 -736 0
v -1056 -704 0
v -1024 -704 0
v -992 -736 0
v -1024 -736 0
v -1024 -704 0
v -992 -704 0
v -1792 -768 0
v -1824 -768 0
v -1824 -736 0
v -1792 -736 0
v -1696 -768 0
v -1728 -768 0
v -1728 -736 0
v -1696 -736 0
v -1120 -768 0
v -1152 -768 0
v -1152 -736 0
v -1120 -736 0
v -1088 -768 0
v -1120 -768 0
v -1120 -736 0
v -1088 -736 0
v -1056 -768 0
v -1088 -768 0
v -1088 -736 0
v -1056 -736 0
v -1024 -768 0
v -1056 -768 0
v -1056 -736 0
v -1024 -736 0
v -992 -768 0
v -1024 -768 0
v -1024 -736 0
v -992 -736 0
v -1120 -800 0
v -1152 -800 0
v -1152 -768 0
v -1120 -768 0
v -1088 -800 0
v -1120 -800 0
v -1120 -768 0
v -1088 -768 0
v -1056 -800 0
v -1088 -800 0
v -1088 -768 0
v -1056 -768 0
v -1024 -800 0
v -1056 -800 0
v -1056 -768 0
v -1024 -768 0
v -992 -800 0
v -1024 -800 0
v -1024 -768 0
v -992 -768 0
v -1632 -832 0
v -1664 -832 0
v -1664 -800 0
v -1632 -800 0
v -1600 -832 0
v -1632 -832 0
v -1632 -800 0
v -1600 -800 0
v -1120 -832 0
v -1152 -832 0
v -1152 -800 0
v -1120 -800 0
v -1088 -832 0
v -1120 -832 0
v -1120 -800 0
v -1088 -800 0
v -1056 -832 0
v -1088 -832 0
v -1088 -800 0
v -1056 -800 0
v -1024 -832 0
v -1056 -832 0
v -1056 -800 0
v -1024 -800 0
v -992 -832 0
v -1024 -832 0
v -1024 -800 0
v -992 -800 0
v -2944 -864 0
v -2976 -864 0
v -2976 -832 0
v -2944 -832 0
v -2912 -864 0
v -2944 -864 0
v -2944 -832 0
v -2912 -832 0
v -1632 -864 0
v -1664 -864 0
v -1664 -832 0
v -1632 -832 0
v -1600 -864 0
v -1632 -864 0
v -1632 -832 0
v -1600 -832 0
v -2944 -896 0
v -2976 -896 0
v -2976 -864 0
v -2944 -864 0
v -2912 -896 0
v -2944 -896 0
v -2944 -864 0
v -2912 -864 0
v -2944 -928 0
v -2976 -928 0
v -2976 -896 0
v -2944 -896 0
v -2912 -928 0
v -2944 -928 0
v -2944 -896 0
v -2912 -896 0
v -2944 -992 0
v -2976 -992 0
v -2976 -960 0
v -2944 -960 0
v -2912 -992 0
v -2944 -992 0
v -2944 -960 0
v -2912 -960 0
v -2944 -1024 0
v -2976 -1024 0
v -2976 -992 0
v -2944 -992 0
v -2912 -1024 0
v -2944 -1024 0
v -2944 -992 0
v -2912 -992 0
v -2944 -1056 0
v -2976 -1056 0
v -2976 -1024 0
v -2944 -1024 0
v -2912 -1056 0
v -2944 -1056 0
v -2944 -1024 0
v -2912 -1024 0
v -2528 -1120 0
v -2560 -1120 0
v -2560 -1088 0
v -2528 -1088 0
v -2496 -1120 0
v -2528 -1120 0
v -2528 -1088 0
v -2496 -1088 0
v -2528 -1152 0
v -2560 -1152 0
v -2560 -1120 0
v -2528 -1120 0
v -2496 -1152 0
v -2528 -1152 0
v -2528 -1120 0
v -2496 -1120 0
v -3072 -1184 0
v -3104 -1184 0
v -3104 -1152 0
v -3072 -1152 0
v -3040 -1184 0
v -3072 -1184 0
v -3072 -1152 0
v -3040 -1152 0
v -2688 -1184 0
v -2720 -1184 0
v -2720 -1152 0
v -2688 -1152 0
v -2656 -1184 0
v -2688 -1184 0
v -2688 -1152 0
v -2656 -1152 0
v -2528 -1184 0
v -2560 -1184 0
v -2560 -1152 0
v -2528 -1152 0
v -2496 -1184 0
v -2528 -1184 0
v -2528 -1152 0
v -2496 -1152 0
v -3072 -1216 0
v -3104 -1216 0
v -3104 -1184 0
v -3072 -1184 0
v -3040 -1216 0
v -3072 -1216 0
v -3072 -1184 0
v -3040 -1184 0
v -2688 -1216 0
v -2720 -1216 0
v -2720 -1184 0
v -2688 -1184 0
v -2656 -1216 0
v -2688 -1216 0
v -2688 -1184 0
v -2656 -1184 0
v -3072 -1248 0
v -3104 -1248 0
v -3104 -1216 0
v -3072 -1216 0
v -3040 -1248 0
v -3072 -1248 0
v -3072 -1216 0
v -3040 -1216 0
v -2688 -1248 0
v -2720 -1248 0
v -2720 -1216 0
v -2688 -1216 0
v -2656 -1248 0
v -2688 -1248 0
v -2688 -1216 0
v -2656 -1216 0
v -2784 -1280 0
v -2816 -1280 0
v -2816 -1248 0
v -2784 -1248 0
v -2752 -1280 0
v -2784 -1280 0
v -2784 -1248 0
v -2752 -1248 0
v -3008 -1312 0
v -3040 -1312 0
v -3040 -1280 0
v -3008 -1280 0
v -2976 -1312 0
v -3008 -1312 0
v -3008 -1280 0
v -2976 -1280 0
v -2784 -1312 0
v -2816 -1312 0
v -2816 -1280 0
v -2784 -1280 0
v -2752 -1312 0
v -2784 -1312 0
v -2784 -1280 0
v -2752 -1280 0
v -3008 -1344 0
v -3040 -1344 0
v -3040 -1312 0
v -3008 -1312 0
v -2976 -1344 0
v -3008 -1344 0
v -3008 -1312 0
v -2976 -1312 0
v -2784 -1344 0
v -2816 -1344 0
v -2816 -1312 0
v -2784 -1312 0
v -2752 -1344 0
v -2784 -1344 0
v -2784 -1312 0
v -2752 -1312 0
v -3008 -1376 0
v -3040 -1376 0
v -3040 -1344 0
v -3008 -1344 0
v -2976 -1376 0
v -3008 -1376 0
v -3008 -1344 0
v -2976 -1344 0
v -2688 -1376 0
v -2720 -1376 0
v -2720 -1344 0
v -2688 -1344 0
v -2656 -1376 0
v -2688 -1376 0
v -2688 -1344 0
v -2656 -1344 0
v -2528 -1376 0
v -2560 -1376 0
v -2560 -1344 0
v -2528 -1344 0
v -2496 -1376 0
v -2528 -1376 0
v -2528 -1344 0
v -2496 -1344 0
v -2272 -1376 0
v -2304 -1376 0
v -2304 -1344 0
v -2272 -1344 0
v -2240 -1376 0
v -2272 -1376 0
v -2272 -1344 0
v -2240 -1344 0
v -2688 -1408 0
v -2720 -1408 0
v -2720 -1376 0
v -2688 -1376 0
v -2656 -1408 0
v -2688 -1408 0
v -2688 -1376 0
v -2656 -1376 0
v -2528 -1408 0
v -2560 -1408 0
v -2560 -1376 0
v -2528 -1376 0
v -2496 -1408 0
v -2528 -1408 0
v -2528 -1376 0
v -2496 -1376 0
v -2272 -1408 0
v -2304 -1408 0
v -2304 -1376 0
v -2272 -1376 0
v -2240 -1408 0
v -2272 -1408 0
v -2272 -1376 0
v -2240 -1376 0
v -2848 -1440 0
v -2880 -1440 0
v -2880 -1408 0
v -2848 -1408 0
v -2816 -1440 0
v -2848 -1440 0
v -2848 -1408 0
v -2816 -1408 0
v -2784 -1440 0
v -2816 -1440 0
v -2816 -1408 0
v -2784 -1408 0
v -2688 -1440 0
v -2720 -1440 0
v -2720 -1408 0
v -2688 -1408 0
v -2656 -1440 0
v -2688 -1440 0
v -2688 -1408 0
v -2656 -1408 0
v -2528 -1440 0
v -2560 -1440 0
v -2560 -1408 0
v -2528 -1408 0
v -2496 -1440 0
v -2528 -1440 0
v -2528 -1408 0
v -2496 -1408 0
v -2272 -1440 0
v -2304 -1440 0
v -2304 -1408 0
v -2272 -1408 0
v -2240 -1440 0
v -2272 -1440 0
v -2272 -1408 0
v -2240 -1408 0
v -2432 -1472 0
v -2464 -1472 0
v -2464 -1440 0
v -2432 -1440 0
v -2400 -1472 0
v -2432 -1472 0
v -2432 -1440 0
v -2400 -1440 0
v -2432 -1504 0
v -2464 -1504 0
v -2464 -1472 0
v -2432 -1472 0
v -2400 -1504 0
v -2432 -1504 0
v -2432 -1472 0
v -2400 -1472 0
v -2336 -1504 0
v -2368 -1504 0
v -2368 -1472 0
v -2336 -1472 0
v -2304 -1504 0
v -2336 -1504 0
v -2336 -1472 0
v -2304 -1472 0
v -2336 -1536 0
v -2368 -1536 0
v -2368 -1504 0
v -2336 -1504 0
v -2304 -1536 0
v -2336 -1536 0
v -2336 -1504 0
v -2304 -1504 0
v -2560 -1568 0
v -2592 -1568 0
v -2592 -1536 0
v -2560 -1536 0
v -2528 -1568 0
v -2560 -1568 0
v -2560 -1536 0
v -2528 -1536 0
v -2336 -1568 0
v -2368 -1568 0
v -2368 -1536 0
v -2336 -1536 0
v -2304 -1568 0
v -2336 -1568 0
v -2336 -1536 0
v -2304 -1536 0
v -2560 -1600 0
v -2592 -1600 0
v -2592 -1568 0
v -2560 -1568 0
v -2528 -1600 0
v -2560 -1600 0
v -2560 -1568 0
v -2528 -1568 0

# Texture cooridinates (Count = 96)
vt 0.1875 0.875
vt 0.25 0.875
vt 0.25 0.9375
vt 0.1875 0.9375
vt 0.125 0.875
vt 0.125 0.9375
vt 0.0625 0.875
vt 0.0625 0.9375
vt 0 0.875
vt 0 0.9375
vt 0.25 0.8125
vt 0.3125 0.8125
vt 0.3125 0.875
vt 0.1875 0.8125
vt 0.125 0.8125
vt 0.0625 0.8125
vt 0 0.8125
vt 0.25 0.75
vt 0.3125 0.75
vt 0.1875 0.75
vt 0.125 0.75
vt 0.0625 0.75
vt 0 0.75
vt 0.25 0.6875
vt 0.3125 0.6875
vt 0.1875 0.6875
vt 0.125 0.6875
vt 0.0625 0.6875
vt 0 0.6875
vt 0.25 0.625
vt 0.3125 0.625
vt 0.1875 0.625
vt 0.125 0.625
vt 0.0625 0.625
vt 0 0.625
vt 0.5 0.125
vt 0.5625 0.125
vt 0.5625 0.1875
vt 0.5 0.1875
vt 0.375 0.5
vt 0.4375 0.5
vt 0.4375 0.5625
vt 0.375 0.5625
vt 0.9375 0.0625
vt 1 0.0625
vt 1 0.125
vt 0.9375 0.125
vt 0.875 0.0625
vt 0.875 0.125
vt 0.3125 0.25
vt 0.375 0.25
vt 0.375 0.3125
vt 0.3125 0.3125
vt 0.25 0.25
vt 0.25 0.3125
vt 0.9375 0
vt 1 0
vt 0.875 0
vt 0.3125 0.1875
vt 0.375 0.1875
vt 0.25 0.1875
vt 0.3125 0.125
vt 0.375 0.125
vt 0.25 0.125
vt 0.1875 0.25
vt 0.1875 0.3125
vt 0.125 0.25
vt 0.125 0.3125
vt 0.1875 0.1875
vt 0.125 0.1875
vt 0.1875 0.125
vt 0.125 0.125
vt 0.3125 0.4375
vt 0.375 0.4375
vt 0.3125 0.5
vt 0.25 0.4375
vt 0.25 0.5
vt 0.3125 0.375
vt 0.375 0.375
vt 0.25 0.375
vt 0.75 0.25
vt 0.8125 0.25
vt 0.8125 0.3125
vt 0.75 0.3125
vt 0.6875 0.25
vt 0.6875 0.3125
vt 0.625 0.25
vt 0.625 0.3125
vt 0.0625 0.0625
vt 0.125 0.0625
vt 0.0625 0.125
vt 0 0.0625
vt 0 0.125
vt 0.0625 0
vt 0.125 0
vt 0 0

# Normal
vn 0 0 -1

# Mesh description
g map1_mesh_0013

# Faces
f 1/1/1 2/2/1 3/3/1 4/4/1
f 5/5/1 6/1/1 7/4/1 8/6/1
f 9/7/1 10/5/1 11/6/1 12/8/1
f 13/9/1 14/7/1 15/8/1 16/10/1
f 17/11/1 18/12/1 19/13/1 20/2/1
f 21/14/1 22/11/1 23/2/1 24/1/1
f 25/15/1 26/14/1 27/1/1 28/5/1
f 29/16/1 30/15/1 31/5/1 32/7/1
f 33/17/1 34/16/1 35/7/1 36/9/1
f 37/1/1 38/2/1 39/3/1 40/4/1
f 41/5/1 42/1/1 43/4/1 44/6/1
f 45/7/1 46/5/1 47/6/1 48/8/1
f 49/9/1 50/7/1 51/8/1 52/10/1
f 53/18/1 54/19/1 55/12/1 56/11/1
f 57/20/1 58/18/1 59/11/1 60/14/1
f 61/21/1 62/20/1 63/14/1 64/15/1
f 65/22/1 66/21/1 67/15/1 68/16/1
f 69/23/1 70/22/1 71/16/1 72/17/1
f 73/11/1 74/12/1 75/13/1 76/2/1
f 77/14/1 78/11/1 79/2/1 80/1/1
f 81/15/1 82/14/1 83/1/1 84/5/1
f 85/16/1 86/15/1 87/5/1 88/7/1
f 89/17/1 90/16/1 91/7/1 92/9/1
f 93/24/1 94/25/1 95/19/1 96/18/1
f 97/26/1 98/24/1 99/18/1 100/20/1
f 101/27/1 102/26/1 103/20/1 104/21/1
f 105/28/1 106/27/1 107/21/1 108/22/1
f 109/29/1 110/28/1 111/22/1 112/23/1
f 113/18/1 114/19/1 115/12/1 116/11/1
f 117/20/1 118/18/1 119/11/1 120/14/1
f 121/21/1 122/20/1 123/14/1 124/15/1
f 125/22/1 126/21/1 127/15/1 128/16/1
f 129/23/1 130/22/1 131/16/1 132/17/1
f 133/30/1 134/31/1 135/25/1 136/24/1
f 137/32/1 138/30/1 139/24/1 140/26/1
f 141/33/1 142/32/1 143/26/1 144/27/1
f 145/34/1 146/33/1 147/27/1 148/28/1
f 149/35/1 150/34/1 151/28/1 152/29/1
f 153/24/1 154/25/1 155/19/1 156/18/1
f 157/26/1 158/24/1 159/18/1 160/20/1
f 161/27/1 162/26/1 163/20/1 164/21/1
f 165/28/1 166/27/1 167/21/1 168/22/1
f 169/29/1 170/28/1 171/22/1 172/23/1
f 173/1/1 174/2/1 175/3/1 176/4/1
f 177/5/1 178/1/1 179/4/1 180/6/1
f 181/7/1 182/5/1 183/6/1 184/8/1
f 185/9/1 186/7/1 187/8/1 188/10/1
f 189/30/1 190/31/1 191/25/1 192/24/1
f 193/32/1 194/30/1 195/24/1 196/26/1
f 197/33/1 198/32/1 199/26/1 200/27/1
f 201/34/1 202/33/1 203/27/1 204/28/1
f 205/35/1 206/34/1 207/28/1 208/29/1
f 209/11/1 210/12/1 211/13/1 212/2/1
f 213/14/1 214/11/1 215/2/1 216/1/1
f 217/15/1 218/14/1 219/1/1 220/5/1
f 221/16/1 222/15/1 223/5/1 224/7/1
f 225/17/1 226/16/1 227/7/1 228/9/1
f 229/1/1 230/2/1 231/3/1 232/4/1
f 233/5/1 234/1/1 235/4/1 236/6/1
f 237/7/1 238/5/1 239/6/1 240/8/1
f 241/9/1 242/7/1 243/8/1 244/10/1
f 245/18/1 246/19/1 247/12/1 248/11/1
f 249/20/1 250/18/1 251/11/1 252/14/1
f 253/21/1 254/20/1 255/14/1 256/15/1
f 257/22/1 258/21/1 259/15/1 260/16/1
f 261/23/1 262/22/1 263/16/1 264/17/1
f 265/11/1 266/12/1 267/13/1 268/2/1
f 269/14/1 270/11/1 271/2/1 272/1/1
f 273/15/1 274/14/1 275/1/1 276/5/1
f 277/16/1 278/15/1 279/5/1 280/7/1
f 281/17/1 282/16/1 283/7/1 284/9/1
f 285/24/1 286/25/1 287/19/1 288/18/1
f 289/26/1 290/24/1 291/18/1 292/20/1
f 293/27/1 294/26/1 295/20/1 296/21/1
f 297/28/1 298/27/1 299/21/1 300/22/1
f 301/29/1 302/28/1 303/22/1 304/23/1
f 305/18/1 306/19/1 307/12/1 308/11/1
f 309/20/1 310/18/1 311/11/1 312/14/1
f 313/21/1 314/20/1 315/14/1 316/15/1
f 317/22/1 318/21/1 319/15/1 320/16/1
f 321/23/1 322/22/1 323/16/1 324/17/1
f 325/30/1 326/31/1 327/25/1 328/24/1
f 329/32/1 330/30/1 331/24/1 332/26/1
f 333/33/1 334/32/1 335/26/1 336/27/1
f 337/34/1 338/33/1 339/27/1 340/28/1
f 341/35/1 342/34/1 343/28/1 344/29/1
f 345/24/1 346/25/1 347/19/1 348/18/1
f 349/26/1 350/24/1 351/18/1 352/20/1
f 353/27/1 354/26/1 355/20/1 356/21/1
f 357/28/1 358/27/1 359/21/1 360/22/1
f 361/29/1 362/28/1 363/22/1 364/23/1
f 365/30/1 366/31/1 367/25/1 368/24/1
f 369/32/1 370/30/1 371/24/1 372/26/1
f 373/33/1 374/32/1 375/26/1 376/27/1
f 377/34/1 378/33/1 379/27/1 380/28/1
f 381/35/1 382/34/1 383/28/1 384/29/1
f 385/1/1 386/2/1 387/3/1 388/4/1
f 389/5/1 390/1/1 391/4/1 392/6/1
f 393/7/1 394/5/1 395/6/1 396/8/1
f 397/9/1 398/7/1 399/8/1 400/10/1
f 401/11/1 402/12/1 403/13/1 404/2/1
f 405/14/1 406/11/1 407/2/1 408/1/1
f 409/15/1 410/14/1 411/1/1 412/5/1
f 413/16/1 414/15/1 415/5/1 416/7/1
f 417/17/1 418/16/1 419/7/1 420/9/1
f 421/18/1 422/19/1 423/12/1 424/11/1
f 425/20/1 426/18/1 427/11/1 428/14/1
f 429/21/1 430/20/1 431/14/1 432/15/1
f 433/22/1 434/21/1 435/15/1 436/16/1
f 437/23/1 438/22/1 439/16/1 440/17/1
f 441/24/1 442/25/1 443/19/1 444/18/1
f 445/26/1 446/24/1 447/18/1 448/20/1
f 449/27/1 450/26/1 451/20/1 452/21/1
f 453/28/1 454/27/1 455/21/1 456/22/1
f 457/29/1 458/28/1 459/22/1 460/23/1
f 461/30/1 462/31/1 463/25/1 464/24/1
f 465/32/1 466/30/1 467/24/1 468/26/1
f 469/33/1 470/32/1 471/26/1 472/27/1
f 473/34/1 474/33/1 475/27/1 476/28/1
f 477/35/1 478/34/1 479/28/1 480/29/1
f 481/36/1 482/37/1 483/38/1 484/39/1
f 485/36/1 486/37/1 487/38/1 488/39/1
f 489/40/1 490/41/1 491/42/1 492/43/1
f 493/36/1 494/37/1 495/38/1 496/39/1
f 497/1/1 498/2/1 499/3/1 500/4/1
f 501/5/1 502/1/1 503/4/1 504/6/1
f 505/7/1 506/5/1 507/6/1 508/8/1
f 509/9/1 510/7/1 511/8/1 512/10/1
f 513/11/1 514/12/1 515/13/1 516/2/1
f 517/14/1 518/11/1 519/2/1 520/1/1
f 521/15/1 522/14/1 523/1/1 524/5/1
f 525/16/1 526/15/1 527/5/1 528/7/1
f 529/17/1 530/16/1 531/7/1 532/9/1
f 533/36/1 534/37/1 535/38/1 536/39/1
f 537/36/1 538/37/1 539/38/1 540/39/1
f 541/18/1 542/19/1 543/12/1 544/11/1
f 545/20/1 546/18/1 547/11/1 548/14/1
f 549/21/1 550/20/1 551/14/1 552/15/1
f 553/22/1 554/21/1 555/15/1 556/16/1
f 557/23/1 558/22/1 559/16/1 560/17/1
f 561/24/1 562/25/1 563/19/1 564/18/1
f 565/26/1 566/24/1 567/18/1 568/20/1
f 569/27/1 570/26/1 571/20/1 572/21/1
f 573/28/1 574/27/1 575/21/1 576/22/1
f 577/29/1 578/28/1 579/22/1 580/23/1
f 581/44/1 582/45/1 583/46/1 584/47/1
f 585/48/1 586/44/1 587/47/1 588/49/1
f 589/30/1 590/31/1 591/25/1 592/24/1
f 593/32/1 594/30/1 595/24/1 596/26/1
f 597/33/1 598/32/1 599/26/1 600/27/1
f 601/34/1 602/33/1 603/27/1 604/28/1
f 605/35/1 606/34/1 607/28/1 608/29/1
f 609/50/1 610/51/1 611/52/1 612/53/1
f 613/54/1 614/50/1 615/53/1 616/55/1
f 617/56/1 618/57/1 619/45/1 620/44/1
f 621/58/1 622/56/1 623/44/1 624/48/1
f 625/59/1 626/60/1 627/51/1 628/50/1
f 629/61/1 630/59/1 631/50/1 632/54/1
f 633/62/1 634/63/1 635/60/1 636/59/1
f 637/64/1 638/62/1 639/59/1 640/61/1
f 641/50/1 642/51/1 643/52/1 644/53/1
f 645/54/1 646/50/1 647/53/1 648/55/1
f 649/59/1 650/60/1 651/51/1 652/50/1
f 653/61/1 654/59/1 655/50/1 656/54/1
f 657/62/1 658/63/1 659/60/1 660/59/1
f 661/64/1 662/62/1 663/59/1 664/61/1
f 665/50/1 666/51/1 667/52/1 668/53/1
f 669/54/1 670/50/1 671/53/1 672/55/1
f 673/59/1 674/60/1 675/51/1 676/50/1
f 677/61/1 678/59/1 679/50/1 680/54/1
f 681/65/1 682/54/1 683/55/1 684/66/1
f 685/67/1 686/65/1 687/66/1 688/68/1
f 689/50/1 690/51/1 691/52/1 692/53/1
f 693/54/1 694/50/1 695/53/1 696/55/1
f 697/62/1 698/63/1 699/60/1 700/59/1
f 701/64/1 702/62/1 703/59/1 704/61/1
f 705/69/1 706/61/1 707/54/1 708/65/1
f 709/70/1 710/69/1 711/65/1 712/67/1
f 713/59/1 714/60/1 715/51/1 716/50/1
f 717/61/1 718/59/1 719/50/1 720/54/1
f 721/71/1 722/64/1 723/61/1 724/69/1
f 725/72/1 726/71/1 727/69/1 728/70/1
f 729/62/1 730/63/1 731/60/1 732/59/1
f 733/64/1 734/62/1 735/59/1 736/61/1
f 737/65/1 738/54/1 739/55/1 740/66/1
f 741/67/1 742/65/1 743/66/1 744/68/1
f 745/65/1 746/54/1 747/55/1 748/66/1
f 749/67/1 750/65/1 751/66/1 752/68/1
f 753/69/1 754/61/1 755/54/1 756/65/1
f 757/70/1 758/69/1 759/65/1 760/67/1
f 761/69/1 762/61/1 763/54/1 764/65/1
f 765/70/1 766/69/1 767/65/1 768/67/1
f 769/71/1 770/64/1 771/61/1 772/69/1
f 773/72/1 774/71/1 775/69/1 776/70/1
f 777/71/1 778/64/1 779/61/1 780/69/1
f 781/72/1 782/71/1 783/69/1 784/70/1
f 785/73/1 786/74/1 787/40/1 788/75/1
f 789/76/1 790/73/1 791/75/1 792/77/1
f 793/65/1 794/54/1 795/55/1 796/66/1
f 797/67/1 798/65/1 799/66/1 800/68/1
f 801/50/1 802/51/1 803/52/1 804/53/1
f 805/54/1 806/50/1 807/53/1 808/55/1
f 809/78/1 810/79/1 811/74/1 812/73/1
f 813/80/1 814/78/1 815/73/1 816/76/1
f 817/69/1 818/61/1 819/54/1 820/65/1
f 821/70/1 822/69/1 823/65/1 824/67/1
f 825/59/1 826/60/1 827/51/1 828/50/1
f 829/61/1 830/59/1 831/50/1 832/54/1
f 833/81/1 834/82/1 835/83/1 836/84/1
f 837/85/1 838/81/1 839/84/1 840/86/1
f 841/87/1 842/85/1 843/86/1 844/88/1
f 845/53/1 846/52/1 847/79/1 848/78/1
f 849/55/1 850/53/1 851/78/1 852/80/1
f 853/71/1 854/64/1 855/61/1 856/69/1
f 857/72/1 858/71/1 859/69/1 860/70/1
f 861/62/1 862/63/1 863/60/1 864/59/1
f 865/64/1 866/62/1 867/59/1 868/61/1
f 869/89/1 870/90/1 871/72/1 872/91/1
f 873/92/1 874/89/1 875/91/1 876/93/1
f 877/94/1 878/95/1 879/90/1 880/89/1
f 881/96/1 882/94/1 883/89/1 884/92/1
f 885/73/1 886/74/1 887/40/1 888/75/1
f 889/76/1 890/73/1 891/75/1 892/77/1
f 893/78/1 894/79/1 895/74/1 896/73/1
f 897/80/1 898/78/1 899/73/1 900/76/1
f 901/89/1 902/90/1 903/72/1 904/91/1
f 905/92/1 906/89/1 907/91/1 908/93/1
f 909/53/1 910/52/1 911/79/1 912/78/1
f 913/55/1 914/53/1 915/78/1 916/80/1
f 917/94/1 918/95/1 919/90/1 920/89/1
f 921/96/1 922/94/1 923/89/1 924/92/1

